<?xml version="1.0" encoding="UTF-8" standalone="no"?>
<!-- Created with Inkscape (http://www.inkscape.org/) -->

<svg
   xmlns:dc="http://purl.org/dc/elements/1.1/"
   xmlns:cc="http://creativecommons.org/ns#"
   xmlns:rdf="http://www.w3.org/1999/02/22-rdf-syntax-ns#"
   xmlns:svg="http://www.w3.org/2000/svg"
   xmlns="http://www.w3.org/2000/svg"
   xmlns:sodipodi="http://sodipodi.sourceforge.net/DTD/sodipodi-0.dtd"
   xmlns:inkscape="http://www.inkscape.org/namespaces/inkscape"
   width="500"
   height="500"
   viewBox="0 0 132.29166 132.29167"
   version="1.1"
   id="svg4979"
   inkscape:version="0.92.3 (2405546, 2018-03-11)"
   sodipodi:docname="keyboardA.svg">
  <defs
     id="defs4973" />
  <sodipodi:namedview
     id="base"
     pagecolor="#ffffff"
     bordercolor="#666666"
     borderopacity="1.0"
     inkscape:pageopacity="0.0"
     inkscape:pageshadow="2"
     inkscape:zoom="0.053473224"
     inkscape:cx="3119.7875"
     inkscape:cy="169.85345"
     inkscape:document-units="mm"
     inkscape:current-layer="layer1"
     showgrid="false"
     inkscape:window-width="1920"
     inkscape:window-height="1017"
     inkscape:window-x="-8"
     inkscape:window-y="-8"
     inkscape:window-maximized="1"
     units="px" />
  <metadata
     id="metadata4976">
    <rdf:RDF>
      <cc:Work
         rdf:about="">
        <dc:format>image/svg+xml</dc:format>
        <dc:type
           rdf:resource="http://purl.org/dc/dcmitype/StillImage" />
        <dc:title></dc:title>
      </cc:Work>
    </rdf:RDF>
  </metadata>
  <g
     inkscape:label="Layer 1"
     inkscape:groupmode="layer"
     id="layer1"
     transform="translate(0,-164.70832)">
    <g
       id="g10793"
       transform="translate(-277.21819,-5.7028523e-6)">
      <g
         id="g32561"
         transform="matrix(6.4140409,0,0,6.4140409,-511.39278,-5200.0693)">
        <g
           id="g32423"
           transform="matrix(0.26264043,0,0,-0.26264043,135.81951,851.336)">
          <path
             d="m 0,0 c -0.001,0.191 -0.115,0.318 -0.256,0.375 -0.019,0.166 -0.126,0.317 -0.342,0.333 -0.838,0.059 -1.677,0.118 -2.515,0.177 -0.319,0.023 -0.486,-0.291 -0.384,-0.564 0.537,-1.436 1.073,-2.872 1.61,-4.308 0.104,-0.28 0.525,-0.283 0.677,-0.052 C -0.409,-2.82 0.007,-1.46 0,0"
             style="fill:#ffdb00;fill-opacity:1;fill-rule:nonzero;stroke:none"
             id="path32421"
             inkscape:connector-curvature="0" />
        </g>
        <g
           id="g32427"
           transform="matrix(0.26264043,0,0,-0.26264043,132.72284,851.16967)">
          <path
             d="m 0,0 c -0.001,0.191 -0.115,0.318 -0.255,0.375 -0.02,0.166 -0.127,0.317 -0.343,0.332 -0.838,0.06 -1.676,0.119 -2.515,0.178 -0.319,0.023 -0.486,-0.292 -0.384,-0.564 0.537,-1.436 1.073,-2.872 1.61,-4.308 0.104,-0.28 0.526,-0.283 0.678,-0.052 C -0.408,-2.82 0.007,-1.46 0,0"
             style="fill:#ffdb00;fill-opacity:1;fill-rule:nonzero;stroke:none"
             id="path32425"
             inkscape:connector-curvature="0" />
        </g>
        <g
           id="g32431"
           transform="matrix(0.26264043,0,0,-0.26264043,133.41511,851.15326)">
          <path
             d="m 0,0 c -0.001,0.191 -0.115,0.318 -0.256,0.375 -0.019,0.166 -0.126,0.317 -0.342,0.333 -0.838,0.059 -1.677,0.118 -2.515,0.178 -0.319,0.022 -0.486,-0.292 -0.384,-0.565 0.537,-1.436 1.073,-2.872 1.61,-4.308 0.104,-0.28 0.525,-0.283 0.677,-0.052 C -0.409,-2.82 0.007,-1.46 0,0"
             style="fill:#ffdb00;fill-opacity:1;fill-rule:nonzero;stroke:none"
             id="path32429"
             inkscape:connector-curvature="0" />
        </g>
        <g
           id="g32435"
           transform="matrix(0.26264043,0,0,-0.26264043,135.03736,851.22175)">
          <path
             d="M 0,0 C -0.001,0.207 -0.125,0.344 -0.277,0.406 -0.298,0.585 -0.414,0.749 -0.647,0.766 -1.555,0.83 -2.462,0.894 -3.37,0.958 -3.715,0.983 -3.896,0.643 -3.785,0.347 -3.204,-1.207 -2.624,-2.761 -2.043,-4.315 -1.93,-4.619 -1.474,-4.621 -1.31,-4.371 -0.442,-3.053 0.007,-1.58 0,0"
             style="fill:#ffdb00;fill-opacity:1;fill-rule:nonzero;stroke:none"
             id="path32433"
             inkscape:connector-curvature="0" />
        </g>
        <g
           id="g32439"
           transform="matrix(0.26264043,0,0,-0.26264043,134.27636,851.23302)">
          <path
             d="m 0,0 c -0.001,0.207 -0.124,0.344 -0.276,0.406 -0.022,0.179 -0.138,0.343 -0.37,0.36 -0.908,0.064 -1.816,0.128 -2.723,0.192 -0.345,0.025 -0.526,-0.315 -0.416,-0.611 0.581,-1.554 1.162,-3.108 1.743,-4.662 0.113,-0.303 0.568,-0.306 0.733,-0.056 C -0.442,-3.052 0.007,-1.58 0,0"
             style="fill:#ffdb00;fill-opacity:1;fill-rule:nonzero;stroke:none"
             id="path32437"
             inkscape:connector-curvature="0" />
        </g>
        <g
           id="g32443"
           transform="matrix(0.26264043,0,0,-0.26264043,131.87722,850.98154)">
          <path
             d="M 0,0 C -0.001,0.207 -0.125,0.344 -0.277,0.406 -0.298,0.585 -0.414,0.749 -0.646,0.766 -1.554,0.83 -2.462,0.894 -3.37,0.958 -3.714,0.983 -3.895,0.643 -3.785,0.347 c 0.581,-1.554 1.162,-3.108 1.743,-4.662 0.113,-0.303 0.568,-0.306 0.733,-0.056 C -0.442,-3.052 0.007,-1.58 0,0"
             style="fill:#ffdb00;fill-opacity:1;fill-rule:nonzero;stroke:none"
             id="path32441"
             inkscape:connector-curvature="0" />
        </g>
        <g
           id="g32447"
           transform="matrix(0.26264043,0,0,-0.26264043,136.87456,854.7284)">
          <path
             d="M 0,0 -3.447,13.083 -22.171,13.945 -27.107,0.627 -44.343,2.899 -18.568,60.952 -2.272,60.795 16.844,2.585 Z"
             style="fill:#f48df8;fill-opacity:1;fill-rule:nonzero;stroke:none"
             id="path32445"
             inkscape:connector-curvature="0" />
        </g>
        <g
           id="g32451"
           transform="matrix(0.26264043,0,0,-0.26264043,136.54576,843.6216)">
          <path
             d="m 0,0 c -0.878,3.333 -2.742,6.418 -5.915,7.566 -4.306,1.558 -11.498,-0.108 -13.645,-2.79 -4.726,-5.903 -3.555,-15.508 -0.53,-21.98 2.944,-6.298 9.797,-9.217 15.251,-4.235 2.828,2.584 4.17,6.447 4.855,10.213 C 0.682,-7.559 0.958,-3.638 0,0"
             style="fill:#000000;fill-opacity:1;fill-rule:nonzero;stroke:none"
             id="path32449"
             inkscape:connector-curvature="0" />
        </g>
        <g
           id="g32455"
           transform="matrix(0.26264043,0,0,-0.26264043,136.40057,843.72098)">
          <path
             d="m 0,0 c -0.834,3.167 -2.604,6.097 -5.619,7.187 -4.091,1.48 -10.923,-0.102 -12.963,-2.65 -4.49,-5.608 -3.377,-14.733 -0.503,-20.881 2.796,-5.983 9.306,-8.757 14.488,-4.023 2.686,2.454 3.961,6.124 4.612,9.702 C 0.647,-7.182 0.911,-3.457 0,0"
             style="fill:#ffffff;fill-opacity:1;fill-rule:nonzero;stroke:none"
             id="path32453"
             inkscape:connector-curvature="0" />
        </g>
        <g
           id="g32459"
           transform="matrix(0.26264043,0,0,-0.26264043,130.34048,850.12885)">
          <path
             d="M 0,0 C 1.398,-0.24 2.405,1.625 1.019,2.416 -0.486,3.274 -1.5,3.03 -3.186,3.034 c -1.789,0.005 -2.526,0.244 -4.026,0.96 -0.799,0.381 -1.432,0.897 -2.31,1.13 -0.362,0.096 -0.728,0.148 -1.097,0.185 l -2.107,-4.745 c 0.173,0.009 0.343,0.017 0.517,0.026 2.223,0.117 3.614,-0.908 5.667,-1.294 C -4.284,-1.128 -2.239,0.384 0,0"
             style="fill:#ff3871;fill-opacity:1;fill-rule:nonzero;stroke:none"
             id="path32457"
             inkscape:connector-curvature="0" />
        </g>
        <g
           id="g32463"
           transform="matrix(0.26264043,0,0,-0.26264043,129.19645,847.73625)">
          <path
             d="M 0,0 C 1.493,-0.683 2.874,-1.866 4.005,-0.031 4.313,0.469 3.806,1.039 3.276,0.917 2.093,0.646 1.211,1.714 0.185,2.05 -0.902,2.405 -2.229,2.507 -3.326,2.619 -3.354,2.622 -3.381,2.623 -3.409,2.626 L -4.486,0.202 C -2.857,0.381 -1.128,0.517 0,0"
             style="fill:#ff9a00;fill-opacity:1;fill-rule:nonzero;stroke:none"
             id="path32461"
             inkscape:connector-curvature="0" />
        </g>
        <g
           id="g32467"
           transform="matrix(0.26264043,0,0,-0.26264043,129.98411,844.8263)">
          <path
             d="M 0,0 C 0.576,0.365 0.81,1.289 0.23,1.786 -0.296,2.238 -0.876,2.475 -1.491,2.621 L -2.896,-0.544 C -1.888,-0.572 -0.868,-0.552 0,0"
             style="fill:#ffdb00;fill-opacity:1;fill-rule:nonzero;stroke:none"
             id="path32465"
             inkscape:connector-curvature="0" />
        </g>
        <g
           id="g32471"
           transform="matrix(0.26264043,0,0,-0.26264043,131.3568,841.42235)">
          <path
             d="M 0,0 C 1.76,0.075 3.471,0.381 5.141,0.944 5.987,1.229 7.163,1.495 7.911,2.008 8.279,2.147 8.648,2.287 9.017,2.426 9.15,2.46 9.239,2.5 9.302,2.542 9.318,2.545 9.332,2.539 9.348,2.543 9.722,2.633 9.955,2.79 10.127,3.134 10.41,3.702 10.233,4.24 9.74,4.61 7.977,5.932 4.664,4.31 2.747,4.153 1.792,4.075 0.752,4.052 -0.316,4.079 L -2.143,-0.035 C -1.415,-0.04 -0.694,-0.03 0,0"
             style="fill:#ff3871;fill-opacity:1;fill-rule:nonzero;stroke:none"
             id="path32469"
             inkscape:connector-curvature="0" />
        </g>
        <g
           id="g32475"
           transform="matrix(0.26264043,0,0,-0.26264043,137.07718,841.19511)">
          <path
             d="M 0,0 -1.405,4.277 C -1.495,4.266 -1.584,4.257 -1.674,4.246 -3.078,4.072 -4.58,4.047 -5.893,3.499 -6.82,3.112 -7.269,1.734 -6.198,1.167 -4.459,0.246 -2.168,-0.009 0,0"
             style="fill:#ff3871;fill-opacity:1;fill-rule:nonzero;stroke:none"
             id="path32473"
             inkscape:connector-curvature="0" />
        </g>
        <g
           id="g32479"
           transform="matrix(0.26264043,0,0,-0.26264043,139.30732,847.98605)">
          <path
             d="M 0,0 -1.428,4.348 C -3.32,4.07 -5.216,4.047 -7.164,3.74 -7.875,3.628 -8.075,2.599 -7.584,2.147 -5.558,0.284 -2.72,-0.15 0,0"
             style="fill:#ff3871;fill-opacity:1;fill-rule:nonzero;stroke:none"
             id="path32477"
             inkscape:connector-curvature="0" />
        </g>
        <g
           id="g32483"
           transform="matrix(0.26264043,0,0,-0.26264043,138.57891,852.64266)">
          <path
             d="M 0,0 C -2.017,0.484 -3.118,0.163 -5.173,-0.003 -6.318,-0.095 -7.462,-0.05 -8.601,0.072 l 1.065,-4.04 c 0.508,0.105 1.015,0.223 1.519,0.368 1.772,0.509 3.98,2.05 5.813,2.091 C 0.641,-1.491 0.866,-0.208 0,0"
             style="fill:#ffdb00;fill-opacity:1;fill-rule:nonzero;stroke:none"
             id="path32481"
             inkscape:connector-curvature="0" />
        </g>
        <g
           id="g32487"
           transform="matrix(0.26264043,0,0,-0.26264043,139.75617,849.35312)">
          <path
             d="m 0,0 c -0.132,-0.021 -0.265,-0.036 -0.397,-0.058 -1.853,-0.31 -4.054,-1.374 -5.844,-1.383 -0.968,-0.005 -1.717,0.34 -2.69,0.26 -1.723,-0.142 -3.339,-0.772 -5.143,-0.798 -0.757,-0.01 -0.888,-0.915 -0.357,-1.317 0.999,-0.756 1.899,-1.156 3.16,-1.164 0.712,-0.004 1.36,0.331 2.041,0.338 1.101,0.013 1.286,-0.45 2.276,-0.789 2.655,-0.911 5.79,-0.683 8.729,-0.493 z"
             style="fill:#ffdb00;fill-opacity:1;fill-rule:nonzero;stroke:none"
             id="path32485"
             inkscape:connector-curvature="0" />
        </g>
        <g
           id="g32491"
           transform="matrix(0.26264043,0,0,-0.26264043,129.26941,852.74604)">
          <path
             d="m 0,0 c -1.84,-0.22 -4.044,0.617 -5.712,-0.3 -0.516,-0.283 -0.254,-1.034 0.287,-1.059 0.883,-0.042 1.912,-1.246 2.797,-1.561 1.499,-0.534 3.222,-0.397 4.773,-0.726 0.291,-0.062 0.565,-0.125 0.848,-0.189 L 4.344,-0.19 C 2.873,-0.074 1.381,0.165 0,0"
             style="fill:#ff9a00;fill-opacity:1;fill-rule:nonzero;stroke:none"
             id="path32489"
             inkscape:connector-curvature="0" />
        </g>
        <g
           id="g32495"
           transform="matrix(0.26264043,0,0,-0.26264043,134.65367,845.87571)">
          <path
             d="m 0,0 c 0,-2.246 -1.644,-4.066 -3.672,-4.066 -2.029,0 -3.673,1.82 -3.673,4.066 0,2.246 1.644,4.066 3.673,4.066 C -1.644,4.066 0,2.246 0,0"
             style="fill:#000000;fill-opacity:1;fill-rule:nonzero;stroke:none"
             id="path32493"
             inkscape:connector-curvature="0" />
        </g>
        <g
           id="g32499"
           transform="matrix(0.26264043,0,0,-0.26264043,133.82202,845.62281)">
          <path
             d="m 0,0 c 0,-1.111 -0.814,-2.012 -1.817,-2.012 -1.004,0 -1.818,0.901 -1.818,2.012 0,1.111 0.814,2.012 1.818,2.012 C -0.814,2.012 0,1.111 0,0"
             style="fill:#ffffff;fill-opacity:1;fill-rule:nonzero;stroke:none"
             id="path32497"
             inkscape:connector-curvature="0" />
        </g>
        <g
           id="g32503"
           transform="matrix(0.26264043,0,0,-0.26264043,129.91485,845.9996)">
          <path
             d="M 0,0 C 0.639,-0.016 0.757,0.936 0.149,1.105 -1.108,1.456 -2.399,1.412 -3.68,1.565 L -4.382,-0.017 C -2.924,-0.15 -1.494,0.037 0,0"
             style="fill:#ff3871;fill-opacity:1;fill-rule:nonzero;stroke:none"
             id="path32501"
             inkscape:connector-curvature="0" />
        </g>
        <g
           id="g32507"
           transform="matrix(0.26264043,0,0,-0.26264043,137.23466,843.54554)">
          <path
             d="M 0,0 C -0.474,-0.027 -0.774,-0.743 -0.265,-0.979 0.771,-1.462 1.871,-1.793 3,-2.013 L 2.314,0.076 C 1.544,0.063 0.773,0.044 0,0"
             style="fill:#ffdb00;fill-opacity:1;fill-rule:nonzero;stroke:none"
             id="path32505"
             inkscape:connector-curvature="0" />
        </g>
        <g
           id="g32511"
           transform="matrix(0.26264043,0,0,-0.26264043,130.54477,842.87995)">
          <path
             d="M 0,0 C 0.4,0.159 0.396,0.843 -0.11,0.815 -0.458,0.796 -0.807,0.783 -1.155,0.775 L -1.704,-0.459 C -1.131,-0.362 -0.562,-0.223 0,0"
             style="fill:#ff9a00;fill-opacity:1;fill-rule:nonzero;stroke:none"
             id="path32509"
             inkscape:connector-curvature="0" />
        </g>
        <g
           id="g32515"
           transform="matrix(0.26264043,0,0,-0.26264043,137.08564,845.52984)">
          <path
             d="M 0,0 C 1.794,-0.33 3.666,-0.419 5.493,-0.321 L 4.735,1.987 C 3.152,1.795 1.568,1.61 0,1.334 -0.663,1.217 -0.658,0.121 0,0"
             style="fill:#ff3871;fill-opacity:1;fill-rule:nonzero;stroke:none"
             id="path32513"
             inkscape:connector-curvature="0" />
        </g>
        <g
           id="g32519"
           transform="matrix(0.26264043,0,0,-0.26264043,136.32595,841.85287)">
          <path
             d="M 0,0 C 1.309,-0.356 2.613,-0.592 3.923,-0.731 L 3.349,1.017 C 2.269,0.944 1.188,0.872 0.108,0.797 -0.333,0.767 -0.461,0.126 0,0"
             style="fill:#ffdb00;fill-opacity:1;fill-rule:nonzero;stroke:none"
             id="path32517"
             inkscape:connector-curvature="0" />
        </g>
        <g
           id="g32523"
           transform="matrix(0.26264043,0,0,-0.26264043,129.96218,854.00474)">
          <path
             d="m 0,0 c -1.066,0.099 -2.12,0.226 -3.139,0.642 -1.643,0.671 -2.139,1.179 -3.872,1.401 -3.154,0.405 -5.964,2.449 -9.093,2.424 l -0.702,-1.58 c 2.362,-0.411 4.362,-1.884 6.575,-2.74 1.287,-0.498 2.402,-0.247 3.64,-0.608 0.654,-0.192 1.198,-0.701 1.794,-1.139 l 4.008,-0.528 z"
             style="fill:#ff3871;fill-opacity:1;fill-rule:nonzero;stroke:none"
             id="path32521"
             inkscape:connector-curvature="0" />
        </g>
        <g
           id="g32527"
           transform="matrix(0.26264043,0,0,-0.26264043,136.37326,842.72452)">
          <path
             d="M 0,0 C 1.764,-0.42 3.299,-1.035 5.023,-1.311 L 4.237,1.081 C 2.793,1.27 1.351,1.539 0,1.032 -0.459,0.859 -0.554,0.132 0,0"
             style="fill:#ff3871;fill-opacity:1;fill-rule:nonzero;stroke:none"
             id="path32525"
             inkscape:connector-curvature="0" />
        </g>
        <g
           id="g32531"
           transform="matrix(0.26264043,0,0,-0.26264043,126.51641,852.53109)">
          <path
             d="M 0,0 C 0.545,0.148 1.061,0.49 1.621,0.584 2.386,0.712 3.377,0.378 4.213,0.406 5.521,0.448 6.556,0.85 7.733,1.403 8.174,1.609 7.834,2.19 7.428,2.127 5.528,1.835 4.14,2.245 2.325,2.431 1.279,2.538 0.462,2.057 -0.553,2.004 -0.936,1.984 -1.247,2.045 -1.522,2.151 l -0.972,-2.19 C -1.604,-0.161 -0.991,-0.27 0,0"
             style="fill:#ff9a00;fill-opacity:1;fill-rule:nonzero;stroke:none"
             id="path32529"
             inkscape:connector-curvature="0" />
        </g>
        <g
           id="g32535"
           transform="matrix(0.26264043,0,0,-0.26264043,139.28399,852.1006)">
          <path
             d="M 0,0 C 1.89,-0.524 3.67,-0.792 5.521,-0.877 L 4.35,2.69 C 4.051,2.698 3.752,2.711 3.454,2.732 1.608,2.864 -0.158,3.563 -2.007,3.579 -4.861,3.603 -8.069,2.753 -10.659,1.634 -11.333,1.343 -10.879,0.483 -10.328,0.414 -6.771,-0.029 -3.511,0.974 0,0"
             style="fill:#ff3871;fill-opacity:1;fill-rule:nonzero;stroke:none"
             id="path32533"
             inkscape:connector-curvature="0" />
        </g>
        <g
           id="g32539"
           transform="matrix(0.26264043,0,0,-0.26264043,141.08311,853.39366)">
          <path
             d="m 0,0 c -0.269,-0.005 -0.541,-0.019 -0.838,-0.049 -1.508,-0.156 -2.736,0.381 -4.202,0.378 -2.384,-0.005 -4.731,-1.312 -7.013,-1.871 -0.767,-0.187 -0.628,-1.51 0.191,-1.412 2.147,0.257 4.907,0.663 7.013,0.262 0.553,-0.105 1.063,-0.287 1.587,-0.431 l 4.082,0.626 z"
             style="fill:#ff3871;fill-opacity:1;fill-rule:nonzero;stroke:none"
             id="path32537"
             inkscape:connector-curvature="0" />
        </g>
        <g
           id="g32543"
           transform="matrix(0.26264043,0,0,-0.26264043,136.41699,848.93904)">
          <path
             d="m 0,0 c 1.232,0.393 2.279,-0.585 3.468,-0.772 0.998,-0.158 2.333,-0.07 3.322,-0.129 1.836,-0.109 3.717,0.085 5.587,0.351 L 11.612,1.779 C 9.55,1.496 7.498,1.293 5.369,1.292 3.536,1.292 0.969,2.401 -0.539,0.925 -0.924,0.547 -0.533,-0.169 0,0"
             style="fill:#ff9a00;fill-opacity:1;fill-rule:nonzero;stroke:none"
             id="path32541"
             inkscape:connector-curvature="0" />
        </g>
        <g
           id="g32547"
           transform="matrix(0.26264043,0,0,-0.26264043,129.11666,847.03939)">
          <path
             d="M 0,0 C 0.969,0.075 2.249,0.958 3.217,0.523 3.596,0.352 4.02,0.8 3.686,1.131 2.506,2.301 1.279,1.404 -0.197,1.457 -0.874,1.481 -1.578,1.615 -2.292,1.806 L -2.896,0.443 C -2.622,0.372 -2.348,0.295 -2.072,0.232 -1.385,0.074 -0.708,-0.055 0,0"
             style="fill:#ffdb00;fill-opacity:1;fill-rule:nonzero;stroke:none"
             id="path32545"
             inkscape:connector-curvature="0" />
        </g>
        <g
           id="g32551"
           transform="matrix(0.26264043,0,0,-0.26264043,126.83652,851.21366)">
          <path
             d="m 0,0 c 1.231,-0.189 2.217,-0.716 3.433,-0.987 1.387,-0.31 3.056,-0.598 4.474,-0.721 2.081,-0.178 3.814,0.72 5.895,0.778 0.745,0.021 0.93,1.124 0.178,1.323 C 12.533,0.776 11.575,0.507 10.132,0.37 8.039,0.171 5.376,0.354 3.324,0.974 2.096,1.344 1.169,2.005 -0.121,2.187 -0.239,2.204 -0.36,2.212 -0.48,2.226 L -1.424,0.099 C -0.947,0.096 -0.472,0.072 0,0"
             style="fill:#ff9a00;fill-opacity:1;fill-rule:nonzero;stroke:none"
             id="path32549"
             inkscape:connector-curvature="0" />
        </g>
        <g
           id="g32555"
           transform="matrix(0.26264043,0,0,-0.26264043,131.09544,848.72641)">
          <path
             d="m 0,0 c -1.564,1.349 -4.071,0.748 -6.039,1.051 -1.699,0.261 -2.982,0.872 -4.594,1.244 -0.564,0.131 -1.129,0.223 -1.694,0.3 l -0.866,-1.949 c 1.519,-0.284 3.034,-0.544 4.486,-0.856 1.278,-0.275 2.635,-0.425 3.916,-0.602 1.445,-0.2 3.064,0.479 4.432,0.196 C -0.028,-0.685 0.3,-0.259 0,0"
             style="fill:#ffdb00;fill-opacity:1;fill-rule:nonzero;stroke:none"
             id="path32553"
             inkscape:connector-curvature="0" />
        </g>
        <g
           id="g32559"
           transform="matrix(0.26264043,0,0,-0.26264043,134.50888,839.27059)">
          <path
             d="m 0,0 c -1.232,0.281 -2.224,0.192 -3.472,0.063 -2.297,-0.236 -4.389,0.124 -6.668,0.404 -0.047,0.006 -0.091,0.009 -0.138,0.014 l -1.049,-2.364 c 1.28,0.038 2.582,-0.057 3.9,-0.079 2.431,-0.039 4.8,0.436 7.219,0.422 C 0.66,-1.545 0.876,-0.201 0,0"
             style="fill:#ffdb00;fill-opacity:1;fill-rule:nonzero;stroke:none"
             id="path32557"
             inkscape:connector-curvature="0" />
        </g>
      </g>
    </g>
  </g>
</svg>
