<?xml version="1.0" encoding="UTF-8" standalone="no"?>
<!-- Created with Inkscape (http://www.inkscape.org/) -->

<svg
   xmlns:dc="http://purl.org/dc/elements/1.1/"
   xmlns:cc="http://creativecommons.org/ns#"
   xmlns:rdf="http://www.w3.org/1999/02/22-rdf-syntax-ns#"
   xmlns:svg="http://www.w3.org/2000/svg"
   xmlns="http://www.w3.org/2000/svg"
   xmlns:sodipodi="http://sodipodi.sourceforge.net/DTD/sodipodi-0.dtd"
   xmlns:inkscape="http://www.inkscape.org/namespaces/inkscape"
   width="500"
   height="500"
   viewBox="0 0 132.29166 132.29167"
   version="1.1"
   id="svg4979"
   inkscape:version="0.92.3 (2405546, 2018-03-11)"
   sodipodi:docname="keyboardE.svg">
  <defs
     id="defs4973" />
  <sodipodi:namedview
     id="base"
     pagecolor="#ffffff"
     bordercolor="#666666"
     borderopacity="1.0"
     inkscape:pageopacity="0.0"
     inkscape:pageshadow="2"
     inkscape:zoom="0.42778579"
     inkscape:cx="1078.1969"
     inkscape:cy="64.67816"
     inkscape:document-units="mm"
     inkscape:current-layer="layer1"
     showgrid="false"
     inkscape:window-width="1920"
     inkscape:window-height="1017"
     inkscape:window-x="-8"
     inkscape:window-y="-8"
     inkscape:window-maximized="1"
     units="px" />
  <metadata
     id="metadata4976">
    <rdf:RDF>
      <cc:Work
         rdf:about="">
        <dc:format>image/svg+xml</dc:format>
        <dc:type
           rdf:resource="http://purl.org/dc/dcmitype/StillImage" />
        <dc:title></dc:title>
      </cc:Work>
    </rdf:RDF>
  </metadata>
  <g
     inkscape:label="Layer 1"
     inkscape:groupmode="layer"
     id="layer1"
     transform="translate(0,-164.70832)">
    <g
       transform="matrix(6.4140409,0,0,6.4140409,-1232.861,-5186.4192)"
       id="g32763">
      <g
         transform="matrix(0.26264043,0,0,-0.26264043,209.62315,839.16325)"
         id="g32697">
        <path
           inkscape:connector-curvature="0"
           id="path32695"
           style="fill:#00cbee;fill-opacity:1;fill-rule:nonzero;stroke:none"
           d="M 0,0 C -0.771,3.931 -3.944,6.993 -7.546,8.488 -14.97,11.57 -23.778,7.836 -27.641,1.061 l -3.838,-0.124 c -1.165,2.315 -3.008,4.275 -5.368,5.499 -2.515,1.303 -5.368,1.375 -8.018,2.252 -1.661,0.549 -3.444,1.472 -4.283,3.095 -0.86,1.659 -0.469,3.83 1.218,4.772 h 10e-4 c 0.406,-0.304 0.798,0.379 0.397,0.679 -2.039,1.53 -4.367,0.183 -5.399,-1.839 -1.088,-2.136 -1.091,-5.013 0.506,-6.903 1.929,-2.282 5.224,-2.281 7.588,-3.866 1.531,-1.027 2.541,-2.431 3.235,-4.012 l -10.496,-0.337 0.076,-2.407 c -0.045,-0.033 -0.085,-0.076 -0.117,-0.141 -1.286,-2.717 -1.945,-5.584 -1.959,-8.59 -10e-4,-0.302 0.335,-0.486 0.593,-0.34 0.323,0.183 0.628,0.39 0.94,0.587 -0.106,-0.867 -0.212,-1.735 -0.318,-2.603 -0.317,-2.595 -0.907,-5.308 -0.969,-7.92 -0.018,-0.8 0.103,-1.968 1.126,-2.014 0.229,-0.011 0.471,0.062 0.718,0.185 -0.502,-2.141 -1.011,-4.281 -1.532,-6.417 -0.292,-1.2 -1.137,-3.146 -0.394,-4.355 1.028,-1.672 1.918,-0.805 2.696,0.266 -0.416,-1.392 -0.78,-2.799 -1.059,-4.227 -0.148,-0.761 -0.513,-1.933 0.112,-2.583 0.398,-0.414 0.942,-0.466 1.342,-0.245 -0.031,-1.265 -1.418,-3.849 -1.553,-4.768 -0.255,-1.723 0.011,-3.393 0.677,-4.991 0.128,-0.306 0.524,-0.401 0.72,-0.094 0.102,0.191 0.226,0.357 0.361,0.512 -0.664,-2.333 -1.08,-4.701 -1.227,-7.136 -0.021,-0.342 0.444,-0.516 0.672,-0.278 0.283,0.295 0.58,0.527 0.89,0.729 l 0.085,-2.711 h 41.601 v 4.939 c 0.575,-0.393 1.144,-0.534 1.5,0.063 0.342,0.575 -0.018,1.583 -0.165,2.16 -0.104,0.402 -0.235,0.794 -0.379,1.182 0.071,-0.01 0.14,-0.023 0.218,-0.023 0.939,0.009 1.237,0.68 1.228,1.497 -0.018,1.532 -0.19,3.467 -0.701,4.934 -0.305,0.877 -0.807,1.561 -1.701,1.819 v 0.038 l -0.116,-0.002 c -0.007,10e-4 -0.012,0.004 -0.019,0.006 -0.076,0.017 -0.143,0.008 -0.204,-0.01 l -24.81,-0.464 -0.313,6.816 21.232,1.018 -0.131,2.644 c 0.496,-0.224 1.036,-0.344 1.633,-0.353 0.243,-0.004 0.463,0.256 0.38,0.498 -0.468,1.35 -1.061,2.636 -1.757,3.87 0.015,-0.002 0.027,-0.007 0.041,-0.008 0.655,-0.057 1.141,0.304 1.138,0.967 -0.003,0.786 -0.507,1.833 -0.718,2.597 -0.194,0.701 -0.333,1.451 -0.619,2.122 -0.148,0.348 -0.358,0.683 -0.62,0.931 l -0.053,1.069 -1.942,-0.064 c -2.709,2.409 -6.572,1.487 -9.551,-0.283 -2.496,1.787 -5.749,1.631 -8.087,-0.298 l -1.807,-0.06 -0.314,6.738 1.939,0.035 c 0.009,-0.023 0.012,-0.045 0.028,-0.069 0.456,-0.67 0.913,-1.341 1.369,-2.011 0.137,-0.201 0.436,-0.277 0.618,-0.08 0.634,0.682 1.174,1.381 1.66,2.15 0.409,-1.186 1.084,-3.116 2.179,-2.845 0.794,0.197 1.33,1.78 1.705,2.992 l 0.139,0.003 c 0.445,-0.948 1.078,-1.907 2.045,-1.106 0.158,0.131 0.229,0.371 0.343,0.532 0.053,0.231 0.161,0.433 0.292,0.623 l 0.294,0.005 c 0.039,-0.115 0.077,-0.229 0.116,-0.343 0.665,-0.872 1.006,-2.011 1.731,-2.903 0.201,-0.248 0.571,-0.079 0.658,0.173 0.391,1.135 0.887,2.162 1.503,3.146 l 0.35,0.006 c 0.197,-0.682 0.396,-1.365 0.639,-2.026 0.191,-0.518 0.55,-1.19 1.171,-1.258 0.613,-0.068 0.872,0.464 1.059,0.948 0.309,0.799 0.607,1.602 0.908,2.405 l 0.711,0.013 c 0.225,-0.44 0.445,-0.881 0.673,-1.319 0.293,-0.565 0.618,-1.594 1.382,-1.677 1.201,-0.13 1.544,1.737 1.655,3.063 l 0.687,0.013 -0.197,2.872 c 0.225,-0.073 0.463,-0.11 0.727,-0.07 0.134,0.021 0.239,0.154 0.275,0.275 0.272,0.902 -0.408,2.009 -0.702,2.838 -0.21,0.59 -0.419,1.179 -0.628,1.767 l -0.078,1.142 c 0.32,-0.276 0.641,-0.552 0.961,-0.828 0.276,-0.238 0.63,-0.063 0.672,0.278 0.305,2.483 -0.433,4.788 -2.049,6.639 l -0.078,1.147 -7.362,-0.235 c 3.66,3.749 10.278,3.755 13.613,-1.247 2.212,-3.318 1.284,-7.121 0.624,-10.765 -0.295,-1.629 -1.413,-5.676 0.521,-6.609 0.282,-0.135 0.566,0.032 0.592,0.34 0.297,3.412 1.07,6.633 1.912,9.937 C -0.019,-4.702 0.459,-2.336 0,0" />
      </g>
      <g
         transform="matrix(0.26264043,0,0,-0.26264043,202.76114,845.09472)"
         id="g32701">
        <path
           inkscape:connector-curvature="0"
           id="path32699"
           style="fill:#000000;fill-opacity:1;fill-rule:nonzero;stroke:none"
           d="m 0,0 c -3.127,2.416 -8.175,0.703 -8.971,-3.231 -0.305,-1.509 0.429,-4.022 2.224,-5.344 1.538,-1.133 3.597,-1.168 5.294,-0.413 1.752,0.78 3.213,2.429 3.431,4.378 C 2.173,-2.873 1.378,-1.064 0,0" />
      </g>
      <g
         transform="matrix(0.26264043,0,0,-0.26264043,202.7001,845.14076)"
         id="g32705">
        <path
           inkscape:connector-curvature="0"
           id="path32703"
           style="fill:#ffffff;fill-opacity:1;fill-rule:nonzero;stroke:none"
           d="m 0,0 c -2.92,2.004 -7.634,0.583 -8.378,-2.681 -0.285,-1.252 0.4,-3.337 2.077,-4.433 1.437,-0.94 3.36,-0.969 4.944,-0.343 1.635,0.647 3,2.015 3.204,3.632 C 2.028,-2.384 1.287,-0.884 0,0" />
      </g>
      <g
         transform="matrix(0.26264043,0,0,-0.26264043,202.0258,845.87161)"
         id="g32709">
        <path
           inkscape:connector-curvature="0"
           id="path32707"
           style="fill:#000000;fill-opacity:1;fill-rule:nonzero;stroke:none"
           d="m 0,0 c -0.637,0.603 -1.665,0.175 -1.827,-0.806 -0.063,-0.376 0.088,-1.002 0.453,-1.332 0.313,-0.282 0.732,-0.291 1.078,-0.103 0.358,0.195 0.654,0.606 0.699,1.092 C 0.443,-0.716 0.281,-0.265 0,0" />
      </g>
      <g
         transform="matrix(0.26264043,0,0,-0.26264043,201.7765,845.91983)"
         id="g32713">
        <path
           inkscape:connector-curvature="0"
           id="path32711"
           style="fill:#ffffff;fill-opacity:1;fill-rule:nonzero;stroke:none"
           d="M 0,0 C 0.285,0.013 0.535,-0.397 0.558,-0.915 0.581,-1.432 0.368,-1.862 0.083,-1.875 -0.202,-1.887 -0.452,-1.478 -0.475,-0.96 -0.498,-0.442 -0.285,-0.012 0,0" />
      </g>
      <g
         transform="matrix(0.26264043,0,0,-0.26264043,205.77229,844.91954)"
         id="g32717">
        <path
           inkscape:connector-curvature="0"
           id="path32715"
           style="fill:#000000;fill-opacity:1;fill-rule:nonzero;stroke:none"
           d="m 0,0 c -3.128,2.416 -8.175,0.703 -8.972,-3.231 -0.305,-1.509 0.429,-4.022 2.225,-5.344 1.537,-1.133 3.597,-1.168 5.293,-0.413 1.752,0.78 3.213,2.429 3.432,4.378 C 2.172,-2.873 1.378,-1.065 0,0" />
      </g>
      <g
         transform="matrix(0.26264043,0,0,-0.26264043,205.71099,844.96595)"
         id="g32721">
        <path
           inkscape:connector-curvature="0"
           id="path32719"
           style="fill:#ffffff;fill-opacity:1;fill-rule:nonzero;stroke:none"
           d="m 0,0 c -2.92,2.007 -7.634,0.584 -8.377,-2.684 -0.285,-1.254 0.4,-3.341 2.077,-4.439 1.436,-0.941 3.359,-0.97 4.943,-0.343 1.636,0.648 3.001,2.018 3.204,3.636 C 2.029,-2.387 1.287,-0.885 0,0" />
      </g>
      <g
         transform="matrix(0.26264043,0,0,-0.26264043,205.03695,845.69643)"
         id="g32725">
        <path
           inkscape:connector-curvature="0"
           id="path32723"
           style="fill:#000000;fill-opacity:1;fill-rule:nonzero;stroke:none"
           d="m 0,0 c -0.638,0.602 -1.665,0.175 -1.828,-0.806 -0.062,-0.376 0.088,-1.003 0.453,-1.332 0.313,-0.282 0.733,-0.291 1.079,-0.103 0.357,0.195 0.654,0.606 0.698,1.092 C 0.442,-0.716 0.28,-0.266 0,0" />
      </g>
      <g
         transform="matrix(0.26264043,0,0,-0.26264043,204.78738,845.74465)"
         id="g32729">
        <path
           inkscape:connector-curvature="0"
           id="path32727"
           style="fill:#ffffff;fill-opacity:1;fill-rule:nonzero;stroke:none"
           d="M 0,0 C 0.286,0.013 0.535,-0.397 0.559,-0.915 0.581,-1.432 0.368,-1.862 0.083,-1.875 -0.202,-1.887 -0.452,-1.478 -0.475,-0.96 -0.498,-0.442 -0.285,-0.013 0,0" />
      </g>
      <g
         transform="matrix(0.26264043,0,0,-0.26264043,205.59942,847.98978)"
         id="g32733">
        <path
           inkscape:connector-curvature="0"
           id="path32731"
           style="fill:#ffdb00;fill-opacity:1;fill-rule:nonzero;stroke:none"
           d="m 0,0 c -0.051,0.192 -0.228,0.369 -0.479,0.333 -5.949,-0.86 -11.942,-1.075 -17.938,-0.664 -0.24,0.017 -0.466,-0.267 -0.379,-0.498 0.524,-1.39 1.234,-2.619 2.173,-3.768 0.187,-0.229 0.594,-0.097 0.657,0.174 0.109,0.465 0.26,0.893 0.454,1.31 0.573,-0.948 1.264,-1.752 2.155,-2.469 0.237,-0.19 0.553,-0.124 0.658,0.174 0.353,1.005 0.666,2.02 0.958,3.042 0.548,-0.972 1.095,-1.945 1.643,-2.917 0.173,-0.307 0.618,-0.218 0.719,0.094 0.385,1.178 0.861,2.3 1.426,3.394 0.577,-1.202 1.287,-2.292 2.185,-3.309 0.175,-0.198 0.49,-0.122 0.619,0.08 0.597,0.932 1.102,1.884 1.54,2.884 0.33,-0.878 0.66,-1.756 0.99,-2.634 0.123,-0.327 0.518,-0.381 0.72,-0.094 0.967,1.379 1.78,2.802 2.477,4.335 C 0.76,-0.134 0.268,0.221 0,0" />
      </g>
      <g
         transform="matrix(0.26264043,0,0,-0.26264043,198.28625,841.97137)"
         id="g32737">
        <path
           inkscape:connector-curvature="0"
           id="path32735"
           style="fill:#ff9a00;fill-opacity:1;fill-rule:nonzero;stroke:none"
           d="M 0,0 C -0.31,-0.224 -0.532,-0.452 -0.789,-0.737 -0.984,-0.953 -1.9,-2.17 -2.158,-0.916 c -0.03,0.149 0.246,0.64 0.291,0.78 0.097,0.309 0.147,0.576 0.148,0.898 0.001,0.315 -0.33,0.469 -0.592,0.34 C -2.613,0.953 -2.817,0.771 -3.053,0.527 -3.155,0.42 -3.298,0.146 -3.437,0.09 -3.949,-0.113 -4.122,0.281 -4.13,0.66 c -0.023,1.077 0.055,2.187 0.875,2.974 0.366,0.351 -0.19,0.907 -0.557,0.556 -1.023,-0.982 -1.521,-3.125 -1.007,-4.473 0.177,-0.466 0.565,-0.676 1.062,-0.622 0.421,0.045 0.706,0.288 0.972,0.563 -0.228,-0.661 -0.408,-1.326 0.274,-1.779 1.237,-0.817 2.112,0.864 2.908,1.442 C 0.804,-0.385 0.411,0.298 0,0" />
      </g>
      <g
         transform="matrix(0.26264043,0,0,-0.26264043,205.31779,840.583)"
         id="g32741">
        <path
           inkscape:connector-curvature="0"
           id="path32739"
           style="fill:#ff9a00;fill-opacity:1;fill-rule:nonzero;stroke:none"
           d="m 0,0 c -0.27,0.427 -0.951,0.033 -0.68,-0.397 0.257,-0.406 0.555,-0.844 0.675,-1.313 0.025,-0.188 0.049,-0.376 0.072,-0.565 -0.021,-0.831 -0.466,-0.957 -1.337,-0.378 0.021,0.451 -0.652,0.524 -0.773,0.105 -0.483,-1.681 -2.649,-1.57 -3.019,0.125 -0.107,0.494 -0.866,0.285 -0.758,-0.209 0.464,-2.132 2.987,-2.467 4.116,-0.971 0.435,-0.472 1.193,-0.629 1.803,-0.201 C 1.448,-2.854 0.682,-1.079 0,0" />
      </g>
      <g
         transform="matrix(0.26264043,0,0,-0.26264043,198.27369,847.03143)"
         id="g32745">
        <path
           inkscape:connector-curvature="0"
           id="path32743"
           style="fill:#ff9a00;fill-opacity:1;fill-rule:nonzero;stroke:none"
           d="m 0,0 c -0.016,-0.306 -0.55,-0.268 -0.724,-0.153 -0.443,0.294 -0.264,1.02 -0.088,1.464 0.083,0.06 0.164,0.116 0.241,0.157 0.447,0.239 0.05,0.919 -0.397,0.68 C -1.025,2.118 -1.068,2.077 -1.121,2.043 -1.243,2.05 -1.363,1.998 -1.433,1.846 -1.437,1.837 -1.439,1.827 -1.443,1.819 -1.577,1.706 -1.703,1.583 -1.833,1.451 -1.956,1.327 -2.077,1.132 -2.229,1.043 -2.701,0.767 -3.078,1.113 -3.193,1.613 -3.438,2.675 -2.534,4.172 -1.951,4.975 -1.652,5.385 -2.335,5.778 -2.63,5.372 -3.46,4.231 -4.627,1.95 -3.684,0.569 -3.061,-0.343 -2.386,-0.007 -1.753,0.51 -1.767,-0.077 -1.58,-0.632 -0.98,-0.901 -0.249,-1.229 0.742,-0.875 0.786,0 0.812,0.506 0.025,0.505 0,0" />
      </g>
      <g
         transform="matrix(0.26264043,0,0,-0.26264043,198.61507,851.28124)"
         id="g32749">
        <path
           inkscape:connector-curvature="0"
           id="path32747"
           style="fill:#ff9a00;fill-opacity:1;fill-rule:nonzero;stroke:none"
           d="m 0,0 c -0.085,0.499 -0.844,0.287 -0.759,-0.209 0.107,-0.618 -0.504,-1.491 -1.2,-1.246 -0.502,0.177 -0.747,0.938 -0.36,1.325 C -2.09,0.1 -2.236,0.408 -2.465,0.508 -2.467,0.573 -2.47,0.639 -2.479,0.706 -2.553,1.205 -3.311,0.993 -3.238,0.496 -3.627,-0.613 -4.096,-0.667 -4.644,0.333 -4.665,0.509 -4.687,0.684 -4.709,0.86 -4.736,1.3 -4.695,1.741 -4.601,2.171 -4.432,2.935 -4.09,3.585 -3.623,4.203 -3.317,4.607 -4,5 -4.302,4.601 -5.233,3.369 -6.276,0.621 -4.966,-0.715 c 0.558,-0.569 1.221,-0.568 1.725,-0.254 0.12,-0.559 0.502,-1.069 1.072,-1.244 C -0.851,-2.62 0.205,-1.198 0,0" />
      </g>
      <g
         transform="matrix(0.26264043,0,0,-0.26264043,205.21494,851.89015)"
         id="g32753">
        <path
           inkscape:connector-curvature="0"
           id="path32751"
           style="fill:#ff9a00;fill-opacity:1;fill-rule:nonzero;stroke:none"
           d="m 0,0 c -0.236,0.448 -0.916,0.05 -0.679,-0.397 0.334,-0.632 0.302,-1.605 -0.342,-2.045 -0.592,-0.405 -1.803,0.213 -1.469,0.994 0.196,0.46 -0.482,0.862 -0.68,0.397 -0.541,-1.265 0.789,-2.647 2.102,-2.277 C 0.329,-2.932 0.596,-1.127 0,0" />
      </g>
      <g
         transform="matrix(0.26264043,0,0,-0.26264043,204.06717,852.38759)"
         id="g32757">
        <path
           inkscape:connector-curvature="0"
           id="path32755"
           style="fill:#ff9a00;fill-opacity:1;fill-rule:nonzero;stroke:none"
           d="m 0,0 c -0.073,-0.507 -0.42,-0.966 -0.963,-1.017 -0.548,-0.051 -1.058,0.395 -1.128,0.934 -0.064,0.495 -0.851,0.501 -0.787,0 0.117,-0.901 0.79,-1.676 1.74,-1.726 0.933,-0.048 1.765,0.691 1.897,1.6 C 0.831,0.286 0.072,0.5 0,0" />
      </g>
      <g
         transform="matrix(0.26264043,0,0,-0.26264043,201.86782,853.07279)"
         id="g32761">
        <path
           inkscape:connector-curvature="0"
           id="path32759"
           style="fill:#ff9a00;fill-opacity:1;fill-rule:nonzero;stroke:none"
           d="m 0,0 c -0.352,-0.876 -0.935,-1.789 -1.935,-1.966 -0.993,-0.177 -2.168,0.919 -1.187,1.77 0.384,0.333 -0.175,0.887 -0.557,0.557 C -3.694,0.347 -3.702,0.329 -3.717,0.315 -3.824,0.456 -4.005,0.529 -4.196,0.401 -4.918,-0.083 -5.909,-0.651 -6.813,-0.35 -7.468,-0.132 -8.104,0.779 -7.59,1.418 -7.274,1.81 -7.828,2.37 -8.146,1.975 c -0.702,-0.873 -0.412,-2.077 0.457,-2.739 1.056,-0.806 2.418,-0.386 3.479,0.23 -0.196,-0.926 0.439,-1.967 1.453,-2.196 1.734,-0.394 2.944,1.092 3.516,2.521 C 0.946,0.261 0.186,0.465 0,0" />
      </g>
    </g>
  </g>
</svg>
