<?xml version="1.0" encoding="UTF-8" standalone="no"?>
<!-- Created with Inkscape (http://www.inkscape.org/) -->

<svg
   xmlns:dc="http://purl.org/dc/elements/1.1/"
   xmlns:cc="http://creativecommons.org/ns#"
   xmlns:rdf="http://www.w3.org/1999/02/22-rdf-syntax-ns#"
   xmlns:svg="http://www.w3.org/2000/svg"
   xmlns="http://www.w3.org/2000/svg"
   xmlns:sodipodi="http://sodipodi.sourceforge.net/DTD/sodipodi-0.dtd"
   xmlns:inkscape="http://www.inkscape.org/namespaces/inkscape"
   width="500"
   height="500"
   viewBox="0 0 132.29166 132.29167"
   version="1.1"
   id="svg4979"
   inkscape:version="0.92.3 (2405546, 2018-03-11)"
   sodipodi:docname="keyboardC.svg">
  <defs
     id="defs4973" />
  <sodipodi:namedview
     id="base"
     pagecolor="#ffffff"
     bordercolor="#666666"
     borderopacity="1.0"
     inkscape:pageopacity="0.0"
     inkscape:pageshadow="2"
     inkscape:zoom="0.15124512"
     inkscape:cx="1694.1874"
     inkscape:cy="-152.10871"
     inkscape:document-units="mm"
     inkscape:current-layer="layer1"
     showgrid="false"
     inkscape:window-width="1920"
     inkscape:window-height="1017"
     inkscape:window-x="-8"
     inkscape:window-y="-8"
     inkscape:window-maximized="1"
     units="px" />
  <metadata
     id="metadata4976">
    <rdf:RDF>
      <cc:Work
         rdf:about="">
        <dc:format>image/svg+xml</dc:format>
        <dc:type
           rdf:resource="http://purl.org/dc/dcmitype/StillImage" />
        <dc:title></dc:title>
      </cc:Work>
    </rdf:RDF>
  </metadata>
  <g
     inkscape:label="Layer 1"
     inkscape:groupmode="layer"
     id="layer1"
     transform="translate(0,-164.70832)">
    <g
       transform="matrix(6.4140409,0,0,6.4140409,-1000.1099,-5195.2744)"
       id="g32639">
      <g
         transform="matrix(0.26264043,0,0,-0.26264043,174.31621,848.31577)"
         id="g32565">
        <path
           inkscape:connector-curvature="0"
           id="path32563"
           style="fill:#ffffff;fill-opacity:1;fill-rule:nonzero;stroke:none"
           d="m 0,0 c -0.25,0.742 -1.238,1.119 -1.826,0.482 -0.723,-0.784 -1.446,-1.567 -2.169,-2.352 -0.181,1.506 -0.607,2.952 -1.271,4.403 -0.349,0.762 -1.385,0.572 -1.782,0 C -7.52,1.85 -7.903,1.148 -8.229,0.425 c -0.529,1.47 -1.104,2.921 -1.734,4.356 -0.332,0.755 -1.611,0.547 -1.767,-0.231 -0.415,-2.071 -0.783,-4.271 -0.575,-6.38 0.023,-0.226 0.174,-0.395 0.357,-0.481 0.051,-0.112 0.117,-0.223 0.216,-0.328 1.904,-2.028 6.071,-7.08 9.376,-5.821 C 0.586,-7.339 0.834,-2.468 0,0" />
      </g>
      <g
         transform="matrix(0.26264043,0,0,-0.26264043,174.19027,843.52631)"
         id="g32569">
        <path
           inkscape:connector-curvature="0"
           id="path32567"
           style="fill:#ffffff;fill-opacity:1;fill-rule:nonzero;stroke:none"
           d="m 0,0 c -0.028,0.219 -0.18,0.395 -0.364,0.491 -2.044,2.898 -5.824,2.339 -8.431,0.444 -1.119,-0.813 -3.171,-2.147 -3.06,-3.765 0.126,-1.844 3.181,-3.649 4.421,-4.755 0.549,-0.49 1.511,-0.333 1.702,0.449 0.326,1.337 0.624,2.678 0.908,4.024 1.18,-1.248 2.342,-2.513 3.459,-3.822 0.522,-0.612 1.539,-0.102 1.54,0.639 C 0.177,-4.209 0.265,-2.072 0,0" />
      </g>
      <g
         transform="matrix(0.26264043,0,0,-0.26264043,169.052,839.57092)"
         id="g32573">
        <path
           inkscape:connector-curvature="0"
           id="path32571"
           style="fill:#f48df8;fill-opacity:1;fill-rule:nonzero;stroke:none"
           d="m 0,0 c -0.057,0.274 -0.24,0.523 -0.594,0.656 -11.176,4.199 -23.815,1.451 -32.5,-6.676 -0.565,-0.528 -0.558,-1.488 -0.039,-1.977 -2.096,-1.229 -4.13,-2.532 -5.976,-4.002 -3.312,-2.638 -5.056,-6.416 -3.42,-10.49 0.415,-1.033 1.885,-1.089 2.504,-0.24 0.55,0.755 1.131,1.455 1.748,2.104 -2.554,-4.985 -3.603,-10.593 -2.958,-16.431 0.123,-1.112 1.652,-1.667 2.467,-0.912 0.296,0.273 0.591,0.547 0.886,0.821 -1.127,-5.065 -0.931,-10.137 3.348,-14.094 0.72,-0.666 2.147,-0.189 2.407,0.719 0.381,1.335 0.757,2.673 1.135,4.009 1.548,-3.175 3.487,-6.104 5.872,-8.808 1.002,-1.136 3.297,-0.346 2.864,1.319 -1.558,5.994 -3.196,11.971 -4.679,17.985 -1.486,6.03 -2.746,12.52 -1.029,18.647 3.32,11.848 15.808,13.766 26.401,14.115 C 0.262,-3.195 0.9,-0.975 0,0" />
      </g>
      <g
         transform="matrix(0.26264043,0,0,-0.26264043,163.1313,853.61719)"
         id="g32577">
        <path
           inkscape:connector-curvature="0"
           id="path32575"
           style="fill:#ff3871;fill-opacity:1;fill-rule:nonzero;stroke:none"
           d="m 0,0 c -4.493,2.82 -7.952,6.593 -10.381,11.32 -2.429,4.727 -3.642,9.884 -3.642,15.473 0,5.641 1.421,10.824 4.269,15.551 2.846,4.727 6.632,8.462 11.36,11.204 4.727,2.742 9.805,4.113 15.238,4.113 4.073,0 7.964,-0.758 11.673,-2.272 3.708,-1.516 6.959,-3.826 9.754,-6.934 2.793,-3.108 4.791,-6.933 5.993,-11.477 L 29.692,32.669 c -0.836,2.194 -2.389,4.164 -4.661,5.915 -2.272,1.749 -5.053,2.624 -8.344,2.624 -2.403,0 -4.701,-0.587 -6.894,-1.762 C 7.599,38.271 5.823,36.573 4.465,34.354 3.106,32.133 2.428,29.587 2.428,26.715 c 0,-2.56 0.561,-4.963 1.685,-7.208 1.122,-2.246 2.715,-4.034 4.779,-5.366 2.063,-1.332 4.426,-1.998 7.09,-1.998 2.35,0 4.491,0.443 6.424,1.332 1.932,0.887 3.526,2.01 4.779,3.369 1.253,1.357 2.088,2.689 2.507,3.995 L 44.264,16.295 C 43.324,12.378 41.522,8.865 38.858,5.758 36.195,2.65 32.852,0.208 28.831,-1.567 24.808,-3.342 20.395,-4.231 15.59,-4.231 9.688,-4.231 4.491,-2.821 0,0" />
      </g>
      <g
         transform="matrix(0.26264043,0,0,-0.26264043,167.19978,838.31697)"
         id="g32581">
        <path
           inkscape:connector-curvature="0"
           id="path32579"
           style="fill:#ffffff;fill-opacity:1;fill-rule:nonzero;stroke:none"
           d="m 0,0 c -1.056,1.33 -2.882,2.982 -5.238,2.85 -3.198,-0.179 -7.966,-2.411 -9.096,-4.066 -2.489,-3.645 -0.27,-8.394 2.698,-10.704 2.887,-2.247 8.034,-2.162 11.152,1.215 1.616,1.751 2.03,3.777 2,5.624 C 1.487,-3.284 1.153,-1.451 0,0" />
      </g>
      <g
         transform="matrix(0.26264043,0,0,-0.26264043,165.97546,839.96527)"
         id="g32585">
        <path
           inkscape:connector-curvature="0"
           id="path32583"
           style="fill:#000000;fill-opacity:1;fill-rule:nonzero;stroke:none"
           d="m 0,0 c 0.349,-1.18 -0.125,-2.361 -1.058,-2.638 -0.934,-0.276 -1.974,0.457 -2.323,1.637 -0.349,1.18 0.124,2.361 1.058,2.637 C -1.39,1.913 -0.35,1.18 0,0" />
      </g>
      <g
         transform="matrix(0.26264043,0,0,-0.26264043,165.63933,839.93911)"
         id="g32589">
        <path
           inkscape:connector-curvature="0"
           id="path32587"
           style="fill:#ffffff;fill-opacity:1;fill-rule:nonzero;stroke:none"
           d="M 0,0 C 0.2,-0.677 -0.071,-1.354 -0.606,-1.512 -1.142,-1.67 -1.738,-1.25 -1.938,-0.574 -2.139,0.103 -1.867,0.78 -1.332,0.938 -0.796,1.097 -0.2,0.677 0,0" />
      </g>
      <g
         transform="matrix(0.26264043,0,0,-0.26264043,167.59658,839.73712)"
         id="g32593">
        <path
           inkscape:connector-curvature="0"
           id="path32591"
           style="fill:#00d6ec;fill-opacity:1;fill-rule:nonzero;stroke:none"
           d="m 0,0 c 0.001,0.109 0.007,0.219 0.005,0.326 -0.029,1.798 -0.362,3.631 -1.516,5.081 -1.056,1.33 -2.882,2.982 -5.238,2.85 -3.197,-0.178 -7.965,-2.41 -9.096,-4.066 -1.669,-2.444 -1.151,-5.733 0.185,-7.912 C -10.756,-1.172 -5.663,0.401 0,0" />
      </g>
      <g
         transform="matrix(0.26264043,0,0,-0.26264043,172.23893,837.97533)"
         id="g32597">
        <path
           inkscape:connector-curvature="0"
           id="path32595"
           style="fill:#ffffff;fill-opacity:1;fill-rule:nonzero;stroke:none"
           d="m 0,0 c -1.056,1.33 -2.882,2.982 -5.238,2.85 -3.198,-0.179 -7.966,-2.411 -9.096,-4.066 -2.489,-3.645 -0.27,-8.394 2.698,-10.703 2.887,-2.248 8.034,-2.163 11.152,1.214 1.616,1.751 2.03,3.777 2,5.624 C 1.487,-3.284 1.153,-1.451 0,0" />
      </g>
      <g
         transform="matrix(0.26264043,0,0,-0.26264043,171.01461,839.62363)"
         id="g32601">
        <path
           inkscape:connector-curvature="0"
           id="path32599"
           style="fill:#000000;fill-opacity:1;fill-rule:nonzero;stroke:none"
           d="m 0,0 c 0.349,-1.18 -0.125,-2.361 -1.058,-2.638 -0.934,-0.276 -1.974,0.457 -2.323,1.637 -0.349,1.18 0.124,2.361 1.058,2.637 C -1.39,1.913 -0.35,1.18 0,0" />
      </g>
      <g
         transform="matrix(0.26264043,0,0,-0.26264043,170.67848,839.59747)"
         id="g32605">
        <path
           inkscape:connector-curvature="0"
           id="path32603"
           style="fill:#ffffff;fill-opacity:1;fill-rule:nonzero;stroke:none"
           d="M 0,0 C 0.2,-0.677 -0.071,-1.354 -0.606,-1.512 -1.142,-1.67 -1.738,-1.25 -1.938,-0.574 -2.139,0.103 -1.867,0.78 -1.332,0.938 -0.796,1.097 -0.2,0.677 0,0" />
      </g>
      <g
         transform="matrix(0.26264043,0,0,-0.26264043,172.63573,839.39537)"
         id="g32609">
        <path
           inkscape:connector-curvature="0"
           id="path32607"
           style="fill:#00d6ec;fill-opacity:1;fill-rule:nonzero;stroke:none"
           d="M 0,0 C 0.001,0.108 0.007,0.218 0.005,0.326 -0.024,2.123 -0.357,3.956 -1.511,5.407 -2.567,6.736 -4.393,8.389 -6.749,8.257 -9.946,8.078 -14.714,5.846 -15.845,4.19 -17.514,1.747 -16.996,-1.542 -15.66,-3.721 -10.756,-1.172 -5.663,0.401 0,0" />
      </g>
      <g
         transform="matrix(0.26264043,0,0,-0.26264043,163.94743,842.77789)"
         id="g32613">
        <path
           inkscape:connector-curvature="0"
           id="path32611"
           style="fill:#ffdb00;fill-opacity:1;fill-rule:nonzero;stroke:none"
           d="m 0,0 c -0.354,-0.851 -0.943,-1.596 -1.714,-2.106 -0.307,-0.203 -0.686,-0.438 -1.048,-0.517 -0.45,-0.098 -0.986,0.094 -0.98,0.625 0.002,0.196 0.101,0.422 0.164,0.603 0.146,0.422 -0.425,0.631 -0.677,0.349 -0.063,-0.002 -0.128,-0.016 -0.196,-0.065 -0.3,-0.213 -0.971,-0.737 -1.328,-0.342 -0.361,0.4 0.246,1.191 0.555,1.417 0.382,0.279 0.055,0.891 -0.327,0.712 C -5.619,0.683 -5.69,0.678 -5.765,0.643 -5.929,0.566 -6.277,0.347 -6.472,0.372 -6.848,0.42 -7.366,0.99 -7.406,1.339 c -0.056,0.482 0.219,1.146 0.433,1.546 0.473,0.882 1.257,1.513 2.203,1.822 0.479,0.157 0.274,0.917 -0.209,0.759 -1.684,-0.55 -2.989,-2.002 -3.188,-3.794 -0.071,-0.652 -0.003,-1.451 0.58,-1.869 0.341,-0.244 0.722,-0.284 1.103,-0.225 -0.213,-0.467 -0.268,-0.983 0.018,-1.425 0.46,-0.711 1.264,-0.564 1.917,-0.237 -0.026,-0.324 0.022,-0.645 0.216,-0.92 0.413,-0.586 1.162,-0.57 1.78,-0.378 1.541,0.477 2.705,1.713 3.312,3.173 C 0.953,0.258 0.192,0.461 0,0" />
      </g>
      <g
         transform="matrix(0.26264043,0,0,-0.26264043,161.61431,847.71135)"
         id="g32617">
        <path
           inkscape:connector-curvature="0"
           id="path32615"
           style="fill:#ffdb00;fill-opacity:1;fill-rule:nonzero;stroke:none"
           d="M 0,0 C -0.403,-0.411 -1.057,-0.023 -1.29,0.394 -1.626,1 -1.534,1.805 -1.563,2.471 -1.581,2.876 -2.087,2.952 -2.276,2.705 -2.392,2.703 -2.505,2.652 -2.579,2.518 c -0.172,-0.313 -0.402,0.16 -0.449,0.287 -0.074,0.204 -0.067,0.45 -0.074,0.664 -0.015,0.498 0.03,0.986 0.125,1.475 0.096,0.495 -0.662,0.707 -0.759,0.209 -0.003,-0.016 -0.006,-0.036 -0.01,-0.053 -2.335,1.456 -0.105,6.449 0.977,8.028 0.287,0.419 -0.395,0.813 -0.68,0.397 C -4.821,11.522 -7.157,5.707 -3.878,4.268 -3.967,3.534 -3.963,2.734 -3.599,2.163 -3.321,1.727 -2.762,1.549 -2.329,1.732 -2.301,0.918 -2.211,0.073 -1.579,-0.487 -0.976,-1.02 -0.041,-1.166 0.557,-0.556 0.912,-0.194 0.355,0.362 0,0" />
      </g>
      <g
         transform="matrix(0.26264043,0,0,-0.26264043,162.84468,846.12669)"
         id="g32621">
        <path
           inkscape:connector-curvature="0"
           id="path32619"
           style="fill:#ffdb00;fill-opacity:1;fill-rule:nonzero;stroke:none"
           d="m 0,0 c -0.22,-0.34 -0.86,-1.19 -1.19,-0.479 -0.205,0.438 -0.155,1.021 -0.056,1.508 0.057,0.058 0.115,0.115 0.163,0.189 0.238,0.36 -0.216,0.694 -0.529,0.53 C -1.764,1.745 -1.909,1.662 -1.957,1.47 -1.958,1.465 -1.959,1.458 -1.96,1.453 -2.208,1.367 -2.501,1.599 -2.626,1.808 c -0.149,0.247 -0.196,0.537 -0.225,0.818 -0.065,0.625 0.054,1.23 0.314,1.8 0.21,0.457 -0.468,0.858 -0.679,0.397 -0.476,-1.039 -0.707,-2.472 -0.037,-3.491 0.274,-0.418 0.721,-0.651 1.161,-0.657 -0.075,-0.756 0.01,-1.612 0.609,-2.021 0.879,-0.6 1.713,0.255 2.163,0.949 C 0.956,0.029 0.275,0.424 0,0" />
      </g>
      <g
         transform="matrix(0.26264043,0,0,-0.26264043,170.77839,850.47948)"
         id="g32625">
        <path
           inkscape:connector-curvature="0"
           id="path32623"
           style="fill:#ffdb00;fill-opacity:1;fill-rule:nonzero;stroke:none"
           d="m 0,0 c -0.495,0.104 -0.706,-0.655 -0.209,-0.759 0.981,-0.205 1.198,-1.31 0.629,-2.047 -0.595,-0.771 -1.609,-0.865 -2.501,-0.683 -0.061,0.012 -0.118,0.011 -0.17,0 -0.223,0.218 -0.725,0.01 -0.659,-0.4 0.164,-1.026 -0.908,-1.69 -1.806,-1.696 -0.888,-0.006 -1.735,0.422 -2.513,0.798 -0.126,0.061 -0.246,0.049 -0.347,0 -0.229,0.111 -0.577,0.003 -0.59,-0.333 -0.055,-1.435 -1.679,-1.557 -2.676,-1.027 -0.683,0.363 -1.195,0.975 -1.676,1.564 -0.32,0.393 -0.874,-0.167 -0.556,-0.556 0.896,-1.098 2.044,-2.204 3.573,-2.113 1.031,0.061 1.843,0.74 2.064,1.696 1.17,-0.561 2.521,-1.132 3.799,-0.611 0.843,0.344 1.41,1.047 1.496,1.897 1.34,-0.229 2.853,0.103 3.472,1.449 C 1.855,-1.678 1.273,-0.266 0,0" />
      </g>
      <g
         transform="matrix(0.26264043,0,0,-0.26264043,164.66483,852.28219)"
         id="g32629">
        <path
           inkscape:connector-curvature="0"
           id="path32627"
           style="fill:#ffdb00;fill-opacity:1;fill-rule:nonzero;stroke:none"
           d="M 0,0 C -0.226,-0.666 -1.758,0.141 -2.069,0.341 -2.684,0.74 -3.133,1.288 -3.459,1.939 -3.554,2.127 -3.725,2.163 -3.878,2.114 -3.96,2.131 -4.05,2.123 -4.144,2.064 -5.711,1.07 -7.198,3.616 -7.722,4.904 -7.73,5.003 -7.771,5.092 -7.837,5.16 c -0.221,0.377 -0.886,0.177 -0.72,-0.273 0.001,-0.002 0.001,-0.003 0.002,-0.004 -0.899,-1.476 -2.446,0.657 -2.887,1.501 -0.569,1.086 -0.759,2.304 -0.58,3.514 0.073,0.496 -0.685,0.709 -0.759,0.209 -0.279,-1.883 0.185,-3.764 1.415,-5.241 0.99,-1.188 2.269,-1.914 3.189,-0.841 0.822,-1.64 2.419,-3.654 4.208,-2.758 0.534,-0.913 1.331,-1.63 2.328,-2.017 0.82,-0.319 2.05,-0.491 2.4,0.541 C 0.922,0.271 0.162,0.478 0,0" />
      </g>
      <g
         transform="matrix(0.26264043,0,0,-0.26264043,164.08195,850.20967)"
         id="g32633">
        <path
           inkscape:connector-curvature="0"
           id="path32631"
           style="fill:#ffdb00;fill-opacity:1;fill-rule:nonzero;stroke:none"
           d="M 0,0 C -0.066,-0.683 -1.04,0.198 -1.182,0.363 -1.521,0.757 -1.788,1.197 -2.017,1.661 -2.237,2.106 -2.89,1.731 -2.704,1.289 -2.705,1.256 -2.71,1.226 -2.704,1.191 -2.763,1.069 -2.867,1.055 -3.016,1.148 -3.125,1.227 -3.217,1.322 -3.293,1.434 -3.429,1.611 -3.536,1.824 -3.636,2.023 -3.86,2.471 -4.007,2.943 -4.111,3.432 -4.216,3.927 -4.975,3.718 -4.87,3.223 -4.678,2.316 -4.284,1.061 -3.473,0.512 -3.086,0.25 -2.608,0.286 -2.285,0.516 -1.907,-0.101 -1.411,-0.702 -0.777,-0.931 -0.056,-1.191 0.712,-0.776 0.787,0 0.835,0.503 0.048,0.5 0,0" />
      </g>
      <g
         transform="matrix(0.26264043,0,0,-0.26264043,167.64698,853.25504)"
         id="g32637">
        <path
           inkscape:connector-curvature="0"
           id="path32635"
           style="fill:#ffdb00;fill-opacity:1;fill-rule:nonzero;stroke:none"
           d="m 0,0 c -0.385,0.324 -0.944,-0.229 -0.557,-0.557 0.297,-0.25 -0.089,-0.502 -0.34,-0.524 -0.248,-0.021 -0.505,0.079 -0.728,0.176 -0.461,0.199 -0.839,0.505 -1.171,0.878 -0.284,0.318 -0.714,-0.025 -0.647,-0.367 -0.045,-1.03 -1.771,-0.181 -2.101,0.037 -0.471,0.311 -0.832,0.724 -1.123,1.203 -0.263,0.432 -0.944,0.037 -0.68,-0.397 0.578,-0.95 1.466,-1.713 2.552,-2.014 0.723,-0.201 1.577,-0.079 1.952,0.494 0.651,-0.539 1.51,-0.957 2.313,-0.741 C 0.236,-1.606 0.672,-0.567 0,0" />
      </g>
    </g>
  </g>
</svg>
