<?xml version="1.0" encoding="UTF-8" standalone="no"?>
<!-- Created with Inkscape (http://www.inkscape.org/) -->

<svg
   xmlns:dc="http://purl.org/dc/elements/1.1/"
   xmlns:cc="http://creativecommons.org/ns#"
   xmlns:rdf="http://www.w3.org/1999/02/22-rdf-syntax-ns#"
   xmlns:svg="http://www.w3.org/2000/svg"
   xmlns="http://www.w3.org/2000/svg"
   xmlns:sodipodi="http://sodipodi.sourceforge.net/DTD/sodipodi-0.dtd"
   xmlns:inkscape="http://www.inkscape.org/namespaces/inkscape"
   width="500"
   height="500"
   viewBox="0 0 132.29166 132.29167"
   version="1.1"
   id="svg4979"
   inkscape:version="0.92.3 (2405546, 2018-03-11)"
   sodipodi:docname="keyboardB.svg">
  <defs
     id="defs4973" />
  <sodipodi:namedview
     id="base"
     pagecolor="#ffffff"
     bordercolor="#666666"
     borderopacity="1.0"
     inkscape:pageopacity="0.0"
     inkscape:pageshadow="2"
     inkscape:zoom="0.10694645"
     inkscape:cx="2254.2174"
     inkscape:cy="-71.567899"
     inkscape:document-units="mm"
     inkscape:current-layer="layer1"
     showgrid="false"
     inkscape:window-width="1920"
     inkscape:window-height="1017"
     inkscape:window-x="-8"
     inkscape:window-y="-8"
     inkscape:window-maximized="1"
     units="px" />
  <metadata
     id="metadata4976">
    <rdf:RDF>
      <cc:Work
         rdf:about="">
        <dc:format>image/svg+xml</dc:format>
        <dc:type
           rdf:resource="http://purl.org/dc/dcmitype/StillImage" />
        <dc:title></dc:title>
      </cc:Work>
    </rdf:RDF>
  </metadata>
  <g
     inkscape:label="Layer 1"
     inkscape:groupmode="layer"
     id="layer1"
     transform="translate(0,-164.70832)">
    <g
       transform="matrix(6.4140409,0,0,6.4140409,-888.69002,-5200.3333)"
       id="g32419">
      <g
         transform="matrix(0.26264043,0,0,-0.26264043,153.16698,846.41549)"
         id="g32181">
        <path
           inkscape:connector-curvature="0"
           id="path32179"
           style="fill:#00d6ec;fill-opacity:1;fill-rule:nonzero;stroke:none"
           d="m 0,0 c 1.828,-1.463 3.264,-3.396 4.309,-5.798 1.044,-2.403 1.567,-5.041 1.567,-7.912 0,-11.961 -8.67,-17.941 -26.011,-17.941 -7.207,0 -13.37,0.183 -18.489,0.548 V 25.54 c 2.351,1.148 5.484,2.01 9.401,2.585 3.918,0.574 7.444,0.862 10.577,0.862 5.745,0 10.42,-1.371 14.023,-4.113 3.604,-2.742 5.406,-6.568 5.406,-11.478 0,-5.17 -2.272,-8.801 -6.816,-10.889 C -3.839,2.297 -1.829,1.461 0,0" />
      </g>
      <g
         transform="matrix(0.26264043,0,0,-0.26264043,150.62688,841.09867)"
         id="g32185">
        <path
           inkscape:connector-curvature="0"
           id="path32183"
           style="fill:#ffffff;fill-opacity:1;fill-rule:nonzero;stroke:none"
           d="m 0,0 c -1.097,1.788 -3.156,3.318 -6.385,3.594 -4.381,0.375 -11.409,-1.422 -13.36,-3.198 -4.294,-3.91 -2.482,-9.223 0.96,-12.538 3.349,-3.225 10.351,-4.071 15.431,-0.598 2.633,1.801 3.704,4.152 4.129,6.371 C 1.188,-4.209 1.198,-1.952 0,0" />
      </g>
      <g
         transform="matrix(0.26264043,0,0,-0.26264043,148.55103,842.84867)"
         id="g32189">
        <path
           inkscape:connector-curvature="0"
           id="path32187"
           style="fill:#000000;fill-opacity:1;fill-rule:nonzero;stroke:none"
           d="m 0,0 c 0.176,-1.479 -0.764,-2.807 -2.1,-2.966 -1.335,-0.159 -2.561,0.911 -2.737,2.39 C -5.013,0.902 -4.073,2.23 -2.738,2.39 -1.402,2.549 -0.176,1.479 0,0" />
      </g>
      <g
         transform="matrix(0.26264043,0,0,-0.26264043,148.10194,842.7553)"
         id="g32193">
        <path
           inkscape:connector-curvature="0"
           id="path32191"
           style="fill:#ffffff;fill-opacity:1;fill-rule:nonzero;stroke:none"
           d="M 0,0 C 0.101,-0.848 -0.438,-1.609 -1.204,-1.7 -1.97,-1.792 -2.672,-1.178 -2.773,-0.331 -2.875,0.518 -2.335,1.279 -1.57,1.37 -0.804,1.461 -0.101,0.848 0,0" />
      </g>
      <g
         transform="matrix(0.26264043,0,0,-0.26264043,150.80708,842.87381)"
         id="g32197">
        <path
           inkscape:connector-curvature="0"
           id="path32195"
           style="fill:#ff3871;fill-opacity:1;fill-rule:nonzero;stroke:none"
           d="M 0,0 C 0.029,0.13 0.064,0.261 0.089,0.39 0.502,2.549 0.512,4.807 -0.686,6.759 -1.783,8.546 -3.842,10.077 -7.071,10.353 -11.452,10.728 -18.48,8.931 -20.431,7.155 -23.31,4.534 -23.437,1.284 -22.175,-1.574 -14.883,0.577 -7.579,1.524 0,0" />
      </g>
      <g
         transform="matrix(0.26264043,0,0,-0.26264043,146.62254,852.88324)"
         id="g32201">
        <path
           inkscape:connector-curvature="0"
           id="path32199"
           style="fill:#ff3871;fill-opacity:1;fill-rule:nonzero;stroke:none"
           d="m 0,0 c -0.295,0.406 -0.978,0.014 -0.679,-0.397 0.408,-0.561 0.304,-1.473 -0.359,-1.812 -0.636,-0.325 -1.346,0.115 -1.591,0.716 10e-4,0.058 0.003,0.117 0.004,0.175 0.006,0.236 -0.163,0.358 -0.344,0.374 -0.24,0.038 -0.546,-0.16 -0.496,-0.485 0.008,-0.057 0.032,-0.108 0.046,-0.162 -0.008,-0.324 -0.016,-0.646 -0.024,-0.97 -0.653,-0.162 -1.478,0.437 -1.37,1.141 0.075,0.495 -0.683,0.709 -0.759,0.209 -0.004,-0.022 -0.003,-0.044 -0.006,-0.066 -0.114,-0.082 -0.179,-0.221 -0.117,-0.397 0.159,-0.455 -0.213,-1.112 -0.756,-0.991 -0.186,0.042 -0.328,0.17 -0.418,0.332 0.191,0.335 0.26,0.741 0.122,1.167 -0.12,0.372 -0.598,0.33 -0.737,0.069 -0.032,-0.028 -0.062,-0.055 -0.087,-0.097 -0.175,-0.302 -0.219,-0.649 -0.165,-0.979 -0.301,-0.222 -0.784,-0.246 -1.137,-0.007 -0.708,0.482 -0.708,1.405 -0.502,2.149 0.136,0.489 -0.623,0.697 -0.759,0.209 -0.353,-1.274 -0.033,-2.92 1.436,-3.295 0.454,-0.116 0.91,-0.017 1.276,0.213 0.207,-0.268 0.497,-0.471 0.852,-0.537 0.612,-0.115 1.164,0.23 1.466,0.727 0.543,-0.605 1.447,-0.885 2.246,-0.465 0.123,0.065 0.191,0.205 0.194,0.34 l 0.004,0.153 c 0.543,-0.395 1.263,-0.545 1.902,-0.258 C 0.328,-2.455 0.692,-0.951 0,0" />
      </g>
      <g
         transform="matrix(0.26264043,0,0,-0.26264043,151.29888,845.68474)"
         id="g32205">
        <path
           inkscape:connector-curvature="0"
           id="path32203"
           style="fill:#ff3871;fill-opacity:1;fill-rule:nonzero;stroke:none"
           d="m 0,0 c -4.022,0.247 -7.895,-0.496 -11.558,-2.168 -0.46,-0.21 -0.043,-0.878 0.413,-0.67 3.533,1.612 7.3,2.289 11.174,2.051 C 0.533,-0.817 0.503,-0.031 0,0" />
      </g>
      <g
         transform="matrix(0.26264043,0,0,-0.26264043,152.13875,849.72066)"
         id="g32209">
        <path
           inkscape:connector-curvature="0"
           id="path32207"
           style="fill:#ff3871;fill-opacity:1;fill-rule:nonzero;stroke:none"
           d="m 0,0 c -1.603,1.187 -4.931,0.706 -6.514,-0.238 -2.933,-1.749 -3.382,-6.285 0.376,-7.295 2.784,-0.748 8.05,-0.052 8.572,3.483 C 2.746,-1.935 1.578,-0.552 0,0" />
      </g>
      <g
         transform="matrix(0.26264043,0,0,-0.26264043,147.1423,847.82242)"
         id="g32213">
        <path
           inkscape:connector-curvature="0"
           id="path32211"
           style="fill:#ff3871;fill-opacity:1;fill-rule:nonzero;stroke:none"
           d="m 0,0 c -0.769,0.226 -1.768,0.036 -2.458,-0.332 -1.495,-0.796 -1.263,-2.456 0.185,-3.11 1.317,-0.596 3.358,-0.296 3.942,1.208 C 2.183,-0.909 1.136,-0.081 0,0" />
      </g>
      <g
         transform="matrix(0.26264043,0,0,-0.26264043,150.45609,847.55261)"
         id="g32217">
        <path
           inkscape:connector-curvature="0"
           id="path32215"
           style="fill:#ffdb00;fill-opacity:1;fill-rule:nonzero;stroke:none"
           d="m 0,0 c -1.122,0.778 -3.185,0.103 -4.152,-0.634 -0.58,-0.443 -1.077,-1.158 -0.979,-1.924 0.123,-0.953 1.124,-1.43 1.94,-1.694 1.567,-0.509 4.657,-0.311 5.003,1.772 C 2.04,-1.105 1.122,-0.281 0,0" />
      </g>
      <g
         transform="matrix(0.26264043,0,0,-0.26264043,148.52038,849.96074)"
         id="g32221">
        <path
           inkscape:connector-curvature="0"
           id="path32219"
           style="fill:#ff9a00;fill-opacity:1;fill-rule:nonzero;stroke:none"
           d="m 0,0 c -1.192,2.494 -4.67,2.834 -6.947,1.637 -2.217,-0.327 -4.461,-2.167 -4.062,-4.614 0.497,-3.042 4.963,-3.146 7.228,-2.749 C -1.069,-5.25 1.4,-2.929 0,0" />
      </g>
      <g
         transform="matrix(0.26264043,0,0,-0.26264043,152.34214,847.94631)"
         id="g32225">
        <path
           inkscape:connector-curvature="0"
           id="path32223"
           style="fill:#ff9a00;fill-opacity:1;fill-rule:nonzero;stroke:none"
           d="M 0,0 C -1.042,0.163 -2.113,-0.118 -2.617,-1.188 -3.37,-2.789 -2.115,-3.844 -0.627,-4.06 0.804,-4.267 3.08,-3.963 3.096,-2.09 3.109,-0.397 1.447,0.482 0,0" />
      </g>
      <g
         transform="matrix(0.26264043,0,0,-0.26264043,146.48696,846.14872)"
         id="g32229">
        <path
           inkscape:connector-curvature="0"
           id="path32227"
           style="fill:#ff9a00;fill-opacity:1;fill-rule:nonzero;stroke:none"
           d="M 0,0 C -0.824,2.453 -3.79,1.937 -5.592,1.121 -5.662,1.089 -5.707,1.044 -5.74,0.996 -6.794,0.644 -7.71,-0.062 -7.902,-1.174 -8.28,-3.375 -5.048,-4.049 -3.494,-3.81 -1.748,-3.54 0.713,-2.122 0,0" />
      </g>
      <g
         transform="matrix(0.26264043,0,0,-0.26264043,151.68824,843.52014)"
         id="g32233">
        <path
           inkscape:connector-curvature="0"
           id="path32231"
           style="fill:#ff9a00;fill-opacity:1;fill-rule:nonzero;stroke:none"
           d="m 0,0 c -0.155,0.015 -0.255,-0.053 -0.315,-0.15 -1.143,0.238 -2.381,0.028 -3.09,-1.012 -0.795,-1.166 -0.496,-2.823 0.878,-3.367 1.341,-0.531 3.595,0.206 4.29,1.5 C 2.519,-1.622 1.483,-0.14 0,0" />
      </g>
      <g
         transform="matrix(0.26264043,0,0,-0.26264043,144.51844,840.90694)"
         id="g32237">
        <path
           inkscape:connector-curvature="0"
           id="path32235"
           style="fill:#ff9a00;fill-opacity:1;fill-rule:nonzero;stroke:none"
           d="M 0,0 C -0.066,0.135 -0.154,0.257 -0.256,0.361 -0.489,0.715 -0.86,1.003 -1.281,1.12 -1.879,1.285 -2.664,1.291 -3.15,0.855 -3.585,0.465 -3.727,-0.186 -3.556,-0.737 -3.159,-2.018 -1.28,-2.398 -0.332,-1.517 0.09,-1.125 0.262,-0.531 0,0" />
      </g>
      <g
         transform="matrix(0.26264043,0,0,-0.26264043,149.31576,852.22089)"
         id="g32241">
        <path
           inkscape:connector-curvature="0"
           id="path32239"
           style="fill:#ffdb00;fill-opacity:1;fill-rule:nonzero;stroke:none"
           d="m 0,0 c -0.206,0.132 -0.437,0.228 -0.704,0.269 -0.934,0.144 -2.312,-0.241 -3.058,-0.82 -1.475,-1.144 -1.263,-4.095 0.603,-4.749 1.783,-0.625 4.937,0.555 5.24,2.599 C 2.297,-1.241 1.244,-0.119 0,0" />
      </g>
      <g
         transform="matrix(0.26264043,0,0,-0.26264043,149.44784,849.18884)"
         id="g32245">
        <path
           inkscape:connector-curvature="0"
           id="path32243"
           style="fill:#ff9a00;fill-opacity:1;fill-rule:nonzero;stroke:none"
           d="m 0,0 c -0.531,0.168 -1.139,0.083 -1.56,-0.34 -0.697,-0.702 -0.594,-1.975 0.256,-2.507 0.889,-0.555 2.096,-0.194 2.479,0.793 C 1.491,-1.242 1.054,0.293 0,0" />
      </g>
      <g
         transform="matrix(0.26264043,0,0,-0.26264043,150.73961,853.11589)"
         id="g32249">
        <path
           inkscape:connector-curvature="0"
           id="path32247"
           style="fill:#ff3871;fill-opacity:1;fill-rule:nonzero;stroke:none"
           d="m 0,0 c -0.531,0.168 -1.139,0.084 -1.56,-0.34 -0.697,-0.702 -0.594,-1.976 0.256,-2.506 0.889,-0.556 2.096,-0.195 2.479,0.792 C 1.491,-1.242 1.054,0.293 0,0" />
      </g>
      <g
         transform="matrix(0.26264043,0,0,-0.26264043,144.69402,851.0145)"
         id="g32253">
        <path
           inkscape:connector-curvature="0"
           id="path32251"
           style="fill:#ff3871;fill-opacity:1;fill-rule:nonzero;stroke:none"
           d="m 0,0 c -0.531,0.168 -1.138,0.083 -1.56,-0.341 -0.697,-0.701 -0.594,-1.975 0.256,-2.506 0.889,-0.555 2.096,-0.194 2.479,0.793 C 1.491,-1.242 1.054,0.293 0,0" />
      </g>
      <g
         transform="matrix(0.26264043,0,0,-0.26264043,151.41136,846.88086)"
         id="g32257">
        <path
           inkscape:connector-curvature="0"
           id="path32255"
           style="fill:#ff3871;fill-opacity:1;fill-rule:nonzero;stroke:none"
           d="M 0,0 C -0.531,0.168 -1.139,0.084 -1.56,-0.34 -2.257,-1.042 -2.154,-2.315 -1.304,-2.846 -0.415,-3.402 0.792,-3.04 1.175,-2.054 1.491,-1.242 1.054,0.293 0,0" />
      </g>
      <g
         transform="matrix(0.26264043,0,0,-0.26264043,151.81646,841.65434)"
         id="g32261">
        <path
           inkscape:connector-curvature="0"
           id="path32259"
           style="fill:#ff3871;fill-opacity:1;fill-rule:nonzero;stroke:none"
           d="m 0,0 c -0.894,0.206 -1.799,0.109 -2.308,-0.844 -0.66,-1.238 0.531,-2.029 1.641,-2.107 C 0.345,-3.023 2.491,-2.9 2.532,-1.466 2.567,-0.215 1.09,0.144 0,0" />
      </g>
      <g
         transform="matrix(0.26264043,0,0,-0.26264043,144.47908,844.58239)"
         id="g32265">
        <path
           inkscape:connector-curvature="0"
           id="path32263"
           style="fill:#ffdb00;fill-opacity:1;fill-rule:nonzero;stroke:none"
           d="m 0,0 c -0.894,0.206 -1.799,0.109 -2.308,-0.844 -0.66,-1.238 0.532,-2.029 1.641,-2.108 C 0.345,-3.023 2.491,-2.9 2.532,-1.466 2.567,-0.215 1.09,0.143 0,0" />
      </g>
      <g
         transform="matrix(0.26264043,0,0,-0.26264043,147.43289,839.13336)"
         id="g32269">
        <path
           inkscape:connector-curvature="0"
           id="path32267"
           style="fill:#ff3871;fill-opacity:1;fill-rule:nonzero;stroke:none"
           d="M 0,0 C -1.405,-0.531 -1.314,-2.249 -0.021,-2.877 1.078,-3.41 3.978,-3.208 4.029,-1.823 4.126,0.826 0.694,0.263 0,0" />
      </g>
      <g
         transform="matrix(0.26264043,0,0,-0.26264043,150.66397,839.81549)"
         id="g32273">
        <path
           inkscape:connector-curvature="0"
           id="path32271"
           style="fill:#ffdb00;fill-opacity:1;fill-rule:nonzero;stroke:none"
           d="M 0,0 C -0.233,0.308 -0.61,0.396 -0.981,0.394 -1.637,0.7 -2.629,0.593 -2.818,-0.116 -3.13,-1.287 -1.044,-1.811 -0.301,-1.331 0.144,-1.043 0.335,-0.442 0,0" />
      </g>
      <g
         transform="matrix(0.26264043,0,0,-0.26264043,145.40409,848.98135)"
         id="g32277">
        <path
           inkscape:connector-curvature="0"
           id="path32275"
           style="fill:#ffdb00;fill-opacity:1;fill-rule:nonzero;stroke:none"
           d="M 0,0 C -0.189,1.864 -1.707,2.154 -3.167,1.883 -4.822,1.956 -6.554,1.278 -6.874,-0.558 -7.232,-2.613 -5.257,-3.67 -3.45,-3.52 -1.647,-3.37 0.201,-1.976 0,0" />
      </g>
      <g
         transform="matrix(0.26264043,0,0,-0.26264043,151.8802,852.21537)"
         id="g32281">
        <path
           inkscape:connector-curvature="0"
           id="path32279"
           style="fill:#ff9a00;fill-opacity:1;fill-rule:nonzero;stroke:none"
           d="m 0,0 c -1.022,0.316 -2.232,0.109 -2.904,-0.801 -0.778,-1.054 0.267,-2.308 1.332,-2.579 1.211,-0.308 2.83,0.48 3.283,1.677 C 2.142,-0.564 0.974,0.042 0,0" />
      </g>
      <g
         transform="matrix(0.26264043,0,0,-0.26264043,144.72068,843.90078)"
         id="g32285">
        <path
           inkscape:connector-curvature="0"
           id="path32283"
           style="fill:#ff3871;fill-opacity:1;fill-rule:nonzero;stroke:none"
           d="m 0,0 c 0.384,-0.384 0.384,-1.007 0,-1.391 -0.384,-0.384 -1.007,-0.384 -1.391,0 -0.384,0.384 -0.384,1.007 0,1.391 0.384,0.384 1.007,0.384 1.391,0" />
      </g>
      <g
         transform="matrix(0.26264043,0,0,-0.26264043,144.07293,845.94368)"
         id="g32289">
        <path
           inkscape:connector-curvature="0"
           id="path32287"
           style="fill:#ff3871;fill-opacity:1;fill-rule:nonzero;stroke:none"
           d="m 0,0 c 0,-0.652 -0.529,-1.181 -1.181,-1.181 -0.652,0 -1.18,0.529 -1.18,1.181 0,0.652 0.528,1.18 1.18,1.18 C -0.529,1.18 0,0.652 0,0" />
      </g>
      <g
         transform="matrix(0.26264043,0,0,-0.26264043,152.85704,851.83423)"
         id="g32293">
        <path
           inkscape:connector-curvature="0"
           id="path32291"
           style="fill:#ffdb00;fill-opacity:1;fill-rule:nonzero;stroke:none"
           d="m 0,0 c 0,-0.435 -0.352,-0.787 -0.787,-0.787 -0.434,0 -0.787,0.352 -0.787,0.787 0,0.435 0.353,0.787 0.787,0.787 C -0.352,0.787 0,0.435 0,0" />
      </g>
      <g
         transform="matrix(0.26264043,0,0,-0.26264043,154.17471,850.02577)"
         id="g32297">
        <path
           inkscape:connector-curvature="0"
           id="path32295"
           style="fill:#ff3871;fill-opacity:1;fill-rule:nonzero;stroke:none"
           d="m 0,0 c 0,-1.032 -0.837,-1.869 -1.869,-1.869 -1.032,0 -1.869,0.837 -1.869,1.869 0,1.032 0.837,1.869 1.869,1.869 C -0.837,1.869 0,1.032 0,0" />
      </g>
      <g
         transform="matrix(0.26264043,0,0,-0.26264043,149.44681,850.49077)"
         id="g32301">
        <path
           inkscape:connector-curvature="0"
           id="path32299"
           style="fill:#ff3871;fill-opacity:1;fill-rule:nonzero;stroke:none"
           d="m 0,0 c 0,-0.326 -0.265,-0.59 -0.59,-0.59 -0.327,0 -0.591,0.264 -0.591,0.59 0,0.326 0.264,0.59 0.591,0.59 C -0.265,0.59 0,0.326 0,0" />
      </g>
      <g
         transform="matrix(0.26264043,0,0,-0.26264043,152.65042,852.91941)"
         id="g32305">
        <path
           inkscape:connector-curvature="0"
           id="path32303"
           style="fill:#ff3871;fill-opacity:1;fill-rule:nonzero;stroke:none"
           d="m 0,0 c -0.326,0 -0.59,0.265 -0.59,0.59 0,0.327 0.264,0.591 0.59,0.591 0.326,0 0.59,-0.264 0.59,-0.591 C 0.59,0.265 0.326,0 0,0" />
      </g>
      <g
         transform="matrix(0.26264043,0,0,-0.26264043,153.86464,851.1625)"
         id="g32309">
        <path
           inkscape:connector-curvature="0"
           id="path32307"
           style="fill:#ff3871;fill-opacity:1;fill-rule:nonzero;stroke:none"
           d="m 0,0 c 0,-0.489 -0.396,-0.885 -0.885,-0.885 -0.489,0 -0.886,0.396 -0.886,0.885 0,0.489 0.397,0.885 0.886,0.885 C -0.396,0.885 0,0.489 0,0" />
      </g>
      <g
         transform="matrix(0.26264043,0,0,-0.26264043,149.34344,851.4726)"
         id="g32313">
        <path
           inkscape:connector-curvature="0"
           id="path32311"
           style="fill:#ff3871;fill-opacity:1;fill-rule:nonzero;stroke:none"
           d="m 0,0 c 0,-0.76 -0.617,-1.377 -1.377,-1.377 -0.761,0 -1.377,0.617 -1.377,1.377 0,0.761 0.616,1.377 1.377,1.377 C -0.617,1.377 0,0.761 0,0" />
      </g>
      <g
         transform="matrix(0.26264043,0,0,-0.26264043,150.58355,849.25066)"
         id="g32317">
        <path
           inkscape:connector-curvature="0"
           id="path32315"
           style="fill:#ff3871;fill-opacity:1;fill-rule:nonzero;stroke:none"
           d="m 0,0 c 0,-0.326 -0.264,-0.59 -0.59,-0.59 -0.327,0 -0.591,0.264 -0.591,0.59 0,0.326 0.264,0.59 0.591,0.59 C -0.264,0.59 0,0.326 0,0" />
      </g>
      <g
         transform="matrix(0.26264043,0,0,-0.26264043,153.78718,852.11841)"
         id="g32321">
        <path
           inkscape:connector-curvature="0"
           id="path32319"
           style="fill:#ff3871;fill-opacity:1;fill-rule:nonzero;stroke:none"
           d="m 0,0 c 0,-0.598 -0.484,-1.082 -1.082,-1.082 -0.598,0 -1.082,0.484 -1.082,1.082 0,0.598 0.484,1.082 1.082,1.082 C -0.484,1.082 0,0.598 0,0" />
      </g>
      <g
         transform="matrix(0.26264043,0,0,-0.26264043,152.39201,846.69299)"
         id="g32325">
        <path
           inkscape:connector-curvature="0"
           id="path32323"
           style="fill:#ff3871;fill-opacity:1;fill-rule:nonzero;stroke:none"
           d="m 0,0 c 0,-0.38 -0.308,-0.688 -0.688,-0.688 -0.381,0 -0.689,0.308 -0.689,0.688 0,0.38 0.308,0.689 0.689,0.689 C -0.308,0.689 0,0.38 0,0" />
      </g>
      <g
         transform="matrix(0.26264043,0,0,-0.26264043,150.53186,845.03943)"
         id="g32329">
        <path
           inkscape:connector-curvature="0"
           id="path32327"
           style="fill:#ff3871;fill-opacity:1;fill-rule:nonzero;stroke:none"
           d="m 0,0 c 0,-0.489 -0.396,-0.885 -0.885,-0.885 -0.49,0 -0.886,0.396 -0.886,0.885 0,0.489 0.396,0.885 0.886,0.885 C -0.396,0.885 0,0.489 0,0" />
      </g>
      <g
         transform="matrix(0.26264043,0,0,-0.26264043,153.37384,847.31293)"
         id="g32333">
        <path
           inkscape:connector-curvature="0"
           id="path32331"
           style="fill:#ff3871;fill-opacity:1;fill-rule:nonzero;stroke:none"
           d="m 0,0 c 0,-0.815 -0.661,-1.476 -1.476,-1.476 -0.815,0 -1.475,0.661 -1.475,1.476 0,0.814 0.66,1.475 1.475,1.475 C -0.661,1.475 0,0.814 0,0" />
      </g>
      <g
         transform="matrix(0.26264043,0,0,-0.26264043,150.42851,852.29937)"
         id="g32337">
        <path
           inkscape:connector-curvature="0"
           id="path32335"
           style="fill:#ff3871;fill-opacity:1;fill-rule:nonzero;stroke:none"
           d="m 0,0 c 0,-0.326 -0.264,-0.59 -0.59,-0.59 -0.326,0 -0.59,0.264 -0.59,0.59 0,0.326 0.264,0.59 0.59,0.59 C -0.264,0.59 0,0.326 0,0" />
      </g>
      <g
         transform="matrix(0.26264043,0,0,-0.26264043,153.86464,848.57893)"
         id="g32341">
        <path
           inkscape:connector-curvature="0"
           id="path32339"
           style="fill:#ffdb00;fill-opacity:1;fill-rule:nonzero;stroke:none"
           d="m 0,0 c 0.489,0 0.886,-0.396 0.886,-0.885 0,-0.49 -0.397,-0.886 -0.886,-0.886 -0.489,0 -0.885,0.396 -0.885,0.886 C -0.885,-0.396 -0.489,0 0,0" />
      </g>
      <g
         transform="matrix(0.26264043,0,0,-0.26264043,148.67171,848.9148)"
         id="g32345">
        <path
           inkscape:connector-curvature="0"
           id="path32343"
           style="fill:#ff3871;fill-opacity:1;fill-rule:nonzero;stroke:none"
           d="m 0,0 c 0,-0.489 -0.396,-0.885 -0.885,-0.885 -0.49,0 -0.886,0.396 -0.886,0.885 0,0.489 0.396,0.885 0.886,0.885 C -0.396,0.885 0,0.489 0,0" />
      </g>
      <g
         transform="matrix(0.26264043,0,0,-0.26264043,152.80535,849.43149)"
         id="g32349">
        <path
           inkscape:connector-curvature="0"
           id="path32347"
           style="fill:#ff3871;fill-opacity:1;fill-rule:nonzero;stroke:none"
           d="m 0,0 c 0,-0.38 -0.308,-0.689 -0.688,-0.689 -0.381,0 -0.689,0.309 -0.689,0.689 0,0.38 0.308,0.688 0.689,0.688 C -0.308,0.688 0,0.38 0,0" />
      </g>
      <g
         transform="matrix(0.26264043,0,0,-0.26264043,147.94829,852.1701)"
         id="g32353">
        <path
           inkscape:connector-curvature="0"
           id="path32351"
           style="fill:#ffdb00;fill-opacity:1;fill-rule:nonzero;stroke:none"
           d="m 0,0 c 0,-0.598 -0.705,-1.082 -1.574,-1.082 -0.869,0 -1.574,0.484 -1.574,1.082 0,0.598 0.705,1.082 1.574,1.082 C -0.705,1.082 0,0.598 0,0" />
      </g>
      <g
         transform="matrix(0.26264043,0,0,-0.26264043,151.77197,842.89511)"
         id="g32357">
        <path
           inkscape:connector-curvature="0"
           id="path32355"
           style="fill:#ffdb00;fill-opacity:1;fill-rule:nonzero;stroke:none"
           d="m 0,0 c 0,-0.217 -0.176,-0.394 -0.394,-0.394 -0.217,0 -0.393,0.177 -0.393,0.394 0,0.217 0.176,0.394 0.393,0.394 C -0.176,0.394 0,0.217 0,0" />
      </g>
      <g
         transform="matrix(0.26264043,0,0,-0.26264043,151.48779,840.51813)"
         id="g32361">
        <path
           inkscape:connector-curvature="0"
           id="path32359"
           style="fill:#ff9a00;fill-opacity:1;fill-rule:nonzero;stroke:none"
           d="m 0,0 c 0.815,0 1.476,-0.661 1.476,-1.476 0,-0.815 -0.661,-1.475 -1.476,-1.475 -0.815,0 -1.476,0.66 -1.476,1.475 C -1.476,-0.661 -0.815,0 0,0" />
      </g>
      <g
         transform="matrix(0.26264043,0,0,-0.26264043,152.96039,843.20505)"
         id="g32365">
        <path
           inkscape:connector-curvature="0"
           id="path32363"
           style="fill:#ff3871;fill-opacity:1;fill-rule:nonzero;stroke:none"
           d="m 0,0 c 0,-0.761 -0.617,-1.377 -1.377,-1.377 -0.761,0 -1.377,0.616 -1.377,1.377 0,0.76 0.616,1.377 1.377,1.377 C -0.617,1.377 0,0.76 0,0" />
      </g>
      <g
         transform="matrix(0.26264043,0,0,-0.26264043,148.56836,847.64892)"
         id="g32369">
        <path
           inkscape:connector-curvature="0"
           id="path32367"
           style="fill:#ff9a00;fill-opacity:1;fill-rule:nonzero;stroke:none"
           d="m 0,0 c 0,-0.652 -0.528,-1.18 -1.181,-1.18 -0.652,0 -1.18,0.528 -1.18,1.18 0,0.652 0.528,1.181 1.18,1.181 C -0.528,1.181 0,0.652 0,0" />
      </g>
      <g
         transform="matrix(0.26264043,0,0,-0.26264043,147.63819,853.53948)"
         id="g32373">
        <path
           inkscape:connector-curvature="0"
           id="path32371"
           style="fill:#ff9a00;fill-opacity:1;fill-rule:nonzero;stroke:none"
           d="m 0,0 c 0,-0.435 -0.352,-0.787 -0.787,-0.787 -0.435,0 -0.787,0.352 -0.787,0.787 0,0.435 0.352,0.787 0.787,0.787 C -0.352,0.787 0,0.435 0,0" />
      </g>
      <g
         transform="matrix(0.26264043,0,0,-0.26264043,150.11854,846.84792)"
         id="g32377">
        <path
           inkscape:connector-curvature="0"
           id="path32375"
           style="fill:#ff3871;fill-opacity:1;fill-rule:nonzero;stroke:none"
           d="m 0,0 c 0,-0.815 -0.661,-1.476 -1.476,-1.476 -0.815,0 -1.475,0.661 -1.475,1.476 0,0.815 0.66,1.476 1.475,1.476 C -0.661,1.476 0,0.815 0,0" />
      </g>
      <g
         transform="matrix(0.26264043,0,0,-0.26264043,146.13983,852.22178)"
         id="g32381">
        <path
           inkscape:connector-curvature="0"
           id="path32379"
           style="fill:#ff3871;fill-opacity:1;fill-rule:nonzero;stroke:none"
           d="m 0,0 c 0,-0.707 -0.573,-1.279 -1.279,-1.279 -0.706,0 -1.279,0.572 -1.279,1.279 0,0.706 0.573,1.279 1.279,1.279 C -0.573,1.279 0,0.706 0,0" />
      </g>
      <g
         transform="matrix(0.26264043,0,0,-0.26264043,146.34642,849.12152)"
         id="g32385">
        <path
           inkscape:connector-curvature="0"
           id="path32383"
           style="fill:#ff3871;fill-opacity:1;fill-rule:nonzero;stroke:none"
           d="m 0,0 c 0,-0.489 -0.396,-0.885 -0.885,-0.885 -0.489,0 -0.886,0.396 -0.886,0.885 0,0.489 0.397,0.885 0.886,0.885 C -0.396,0.885 0,0.489 0,0" />
      </g>
      <g
         transform="matrix(0.26264043,0,0,-0.26264043,144.43458,847.64892)"
         id="g32389">
        <path
           inkscape:connector-curvature="0"
           id="path32387"
           style="fill:#ff3871;fill-opacity:1;fill-rule:nonzero;stroke:none"
           d="m 0,0 c 0,-0.978 -0.792,-1.771 -1.771,-1.771 -0.978,0 -1.77,0.793 -1.77,1.771 0,0.978 0.792,1.771 1.77,1.771 C -0.792,1.771 0,0.978 0,0" />
      </g>
      <g
         transform="matrix(0.26264043,0,0,-0.26264043,147.58653,847.02886)"
         id="g32393">
        <path
           inkscape:connector-curvature="0"
           id="path32391"
           style="fill:#ff3871;fill-opacity:1;fill-rule:nonzero;stroke:none"
           d="m 0,0 c 0,-0.652 -0.528,-1.18 -1.18,-1.18 -0.652,0 -1.181,0.528 -1.181,1.18 0,0.652 0.529,1.181 1.181,1.181 C -0.528,1.181 0,0.652 0,0" />
      </g>
      <g
         transform="matrix(0.26264043,0,0,-0.26264043,145.88142,847.88141)"
         id="g32397">
        <path
           inkscape:connector-curvature="0"
           id="path32395"
           style="fill:#ff3871;fill-opacity:1;fill-rule:nonzero;stroke:none"
           d="m 0,0 c 0,-0.706 -0.572,-1.279 -1.279,-1.279 -0.706,0 -1.279,0.573 -1.279,1.279 0,0.707 0.573,1.279 1.279,1.279 C -0.572,1.279 0,0.707 0,0" />
      </g>
      <g
         transform="matrix(0.26264043,0,0,-0.26264043,145.26135,850.25826)"
         id="g32401">
        <path
           inkscape:connector-curvature="0"
           id="path32399"
           style="fill:#ff3871;fill-opacity:1;fill-rule:nonzero;stroke:none"
           d="m 0,0 c 0,-0.271 -0.22,-0.492 -0.492,-0.492 -0.272,0 -0.492,0.221 -0.492,0.492 0,0.271 0.22,0.492 0.492,0.492 C -0.22,0.492 0,0.271 0,0" />
      </g>
      <g
         transform="matrix(0.26264043,0,0,-0.26264043,148.15502,854.03025)"
         id="g32405">
        <path
           inkscape:connector-curvature="0"
           id="path32403"
           style="fill:#ff3871;fill-opacity:1;fill-rule:nonzero;stroke:none"
           d="m 0,0 c 0,-0.38 -0.309,-0.689 -0.689,-0.689 -0.38,0 -0.688,0.309 -0.688,0.689 0,0.38 0.308,0.688 0.688,0.688 C -0.309,0.688 0,0.38 0,0" />
      </g>
      <g
         transform="matrix(0.26264043,0,0,-0.26264043,144.07293,850.54243)"
         id="g32409">
        <path
           inkscape:connector-curvature="0"
           id="path32407"
           style="fill:#ff3871;fill-opacity:1;fill-rule:nonzero;stroke:none"
           d="m 0,0 c 0,-0.543 -0.44,-0.984 -0.984,-0.984 -0.543,0 -0.984,0.441 -0.984,0.984 0,0.543 0.441,0.984 0.984,0.984 C -0.44,0.984 0,0.543 0,0" />
      </g>
      <g
         transform="matrix(0.26264043,0,0,-0.26264043,144.07293,842.58501)"
         id="g32413">
        <path
           inkscape:connector-curvature="0"
           id="path32411"
           style="fill:#ff3871;fill-opacity:1;fill-rule:nonzero;stroke:none"
           d="m 0,0 c 0,-0.652 -0.529,-1.181 -1.181,-1.181 -0.652,0 -1.18,0.529 -1.18,1.181 0,0.652 0.528,1.18 1.18,1.18 C -0.529,1.18 0,0.652 0,0" />
      </g>
      <g
         transform="matrix(0.26264043,0,0,-0.26264043,147.79326,845.89199)"
         id="g32417">
        <path
           inkscape:connector-curvature="0"
           id="path32415"
           style="fill:#ff3871;fill-opacity:1;fill-rule:nonzero;stroke:none"
           d="m 0,0 c 0,-0.652 -0.528,-1.181 -1.18,-1.181 -0.653,0 -1.181,0.529 -1.181,1.181 0,0.652 0.528,1.18 1.181,1.18 C -0.528,1.18 0,0.652 0,0" />
      </g>
    </g>
  </g>
</svg>
