<?xml version="1.0" encoding="UTF-8" standalone="no"?>
<!-- Created with Inkscape (http://www.inkscape.org/) -->

<svg
   xmlns:dc="http://purl.org/dc/elements/1.1/"
   xmlns:cc="http://creativecommons.org/ns#"
   xmlns:rdf="http://www.w3.org/1999/02/22-rdf-syntax-ns#"
   xmlns:svg="http://www.w3.org/2000/svg"
   xmlns="http://www.w3.org/2000/svg"
   xmlns:sodipodi="http://sodipodi.sourceforge.net/DTD/sodipodi-0.dtd"
   xmlns:inkscape="http://www.inkscape.org/namespaces/inkscape"
   width="500"
   height="500"
   viewBox="0 0 132.29166 132.29167"
   version="1.1"
   id="svg4979"
   inkscape:version="0.92.3 (2405546, 2018-03-11)"
   sodipodi:docname="keyboardD.svg">
  <defs
     id="defs4973" />
  <sodipodi:namedview
     id="base"
     pagecolor="#ffffff"
     bordercolor="#666666"
     borderopacity="1.0"
     inkscape:pageopacity="0.0"
     inkscape:pageshadow="2"
     inkscape:zoom="0.053473224"
     inkscape:cx="6931.4179"
     inkscape:cy="-418.17264"
     inkscape:document-units="mm"
     inkscape:current-layer="layer1"
     showgrid="false"
     inkscape:window-width="1920"
     inkscape:window-height="1017"
     inkscape:window-x="-8"
     inkscape:window-y="-8"
     inkscape:window-maximized="1"
     units="px" />
  <metadata
     id="metadata4976">
    <rdf:RDF>
      <cc:Work
         rdf:about="">
        <dc:format>image/svg+xml</dc:format>
        <dc:type
           rdf:resource="http://purl.org/dc/dcmitype/StillImage" />
        <dc:title></dc:title>
      </cc:Work>
    </rdf:RDF>
  </metadata>
  <g
     inkscape:label="Layer 1"
     inkscape:groupmode="layer"
     id="layer1"
     transform="translate(0,-164.70832)">
    <g
       transform="matrix(6.4140409,0,0,6.4140409,-1127.3245,-5199.2116)"
       id="g32693">
      <g
         transform="matrix(0.26264043,0,0,-0.26264043,188.10869,839.50192)"
         id="g32643">
        <path
           inkscape:connector-curvature="0"
           id="path32641"
           style="fill:#a1dc00;fill-opacity:1;fill-rule:nonzero;stroke:none"
           d="m 0,0 c 5.249,-2.664 9.374,-6.53 12.377,-11.595 3.004,-5.067 4.506,-11.047 4.506,-17.941 0,-9.349 -2.809,-16.413 -8.422,-21.192 -5.614,-4.779 -14.273,-7.194 -25.971,-7.247 -4.231,0 -9.193,0.392 -14.886,1.176 l 0.784,57.504 -0.157,0.314 c 2.507,1.044 4.78,1.801 6.817,2.272 2.036,0.469 4.387,0.705 7.05,0.705 C -11.218,3.996 -5.249,2.664 0,0" />
      </g>
      <g
         transform="matrix(0.26264043,0,0,-0.26264043,187.0725,842.98396)"
         id="g32647">
        <path
           inkscape:connector-curvature="0"
           id="path32645"
           style="fill:#000000;fill-opacity:1;fill-rule:nonzero;stroke:none"
           d="m 0,0 c -6.357,4.912 -16.619,1.429 -18.238,-6.57 -0.621,-3.066 0.872,-8.176 4.521,-10.864 3.126,-2.301 7.313,-2.373 10.762,-0.838 3.561,1.585 6.531,4.938 6.976,8.9 C 4.416,-5.841 2.802,-2.165 0,0" />
      </g>
      <g
         transform="matrix(0.26264043,0,0,-0.26264043,186.94835,843.13965)"
         id="g32651">
        <path
           inkscape:connector-curvature="0"
           id="path32649"
           style="fill:#ffffff;fill-opacity:1;fill-rule:nonzero;stroke:none"
           d="m 0,0 c -5.937,4.587 -15.52,1.334 -17.032,-6.135 -0.579,-2.864 0.814,-7.635 4.222,-10.145 2.919,-2.15 6.829,-2.217 10.049,-0.783 3.327,1.48 6.101,4.611 6.515,8.311 C 4.124,-5.455 2.616,-2.022 0,0" />
      </g>
      <g
         transform="matrix(0.26264043,0,0,-0.26264043,185.57768,844.5634)"
         id="g32655">
        <path
           inkscape:connector-curvature="0"
           id="path32653"
           style="fill:#000000;fill-opacity:1;fill-rule:nonzero;stroke:none"
           d="m 0,0 c -1.295,1.225 -3.386,0.356 -3.716,-1.638 -0.126,-0.765 0.178,-2.038 0.922,-2.709 0.637,-0.573 1.489,-0.591 2.191,-0.209 0.726,0.395 1.332,1.231 1.421,2.219 C 0.899,-1.457 0.57,-0.54 0,0" />
      </g>
      <g
         transform="matrix(0.26264043,0,0,-0.26264043,188.58678,848.80591)"
         id="g32659">
        <path
           inkscape:connector-curvature="0"
           id="path32657"
           style="fill:#ffffff;fill-opacity:1;fill-rule:nonzero;stroke:none"
           d="m 0,0 c -0.195,0.249 -0.485,0.123 -0.599,-0.103 -0.057,-0.004 -0.117,-0.02 -0.178,-0.059 -0.747,-0.485 -1.494,-0.969 -2.241,-1.454 -0.222,-0.144 -0.252,-0.422 -0.08,-0.618 0.8,-0.91 1.994,-3.216 3.562,-2.017 C 1.774,-3.25 0.778,-0.992 0,0" />
      </g>
      <g
         transform="matrix(0.26264043,0,0,-0.26264043,187.58698,849.45379)"
         id="g32663">
        <path
           inkscape:connector-curvature="0"
           id="path32661"
           style="fill:#ffffff;fill-opacity:1;fill-rule:nonzero;stroke:none"
           d="m 0,0 c -0.068,0.343 -0.447,0.344 -0.645,0.151 -0.075,0.038 -0.167,0.05 -0.274,0.009 -0.737,-0.281 -2.378,-0.488 -2.322,-1.532 0.034,-0.642 0.36,-1.413 0.6,-2.004 0.147,-0.362 0.341,-0.729 0.676,-0.95 0.777,-0.511 1.708,0.037 2.038,0.803 C 0.526,-2.471 0.214,-1.075 0,0" />
      </g>
      <g
         transform="matrix(0.26264043,0,0,-0.26264043,186.2902,849.87007)"
         id="g32667">
        <path
           inkscape:connector-curvature="0"
           id="path32665"
           style="fill:#ffffff;fill-opacity:1;fill-rule:nonzero;stroke:none"
           d="m 0,0 c -0.084,0.301 -0.404,0.336 -0.606,0.205 -0.647,-0.076 -1.308,-0.121 -1.947,-0.242 -0.383,-0.071 -0.601,-0.232 -0.692,-0.631 -0.227,-1.004 0.082,-2.457 0.909,-3.118 0.678,-0.542 1.579,-0.485 2.037,0.291 C 0.307,-2.47 0.312,-1.113 0,0" />
      </g>
      <g
         transform="matrix(0.26264043,0,0,-0.26264043,182.79997,849.47892)"
         id="g32671">
        <path
           inkscape:connector-curvature="0"
           id="path32669"
           style="fill:#ffffff;fill-opacity:1;fill-rule:nonzero;stroke:none"
           d="M 0,0 C 0.072,0.303 -0.19,0.49 -0.431,0.474 -1.032,0.723 -1.632,1.006 -2.248,1.211 -2.617,1.335 -2.887,1.301 -3.16,0.996 -3.848,0.23 -4.284,-1.188 -3.885,-2.168 -3.557,-2.972 -2.741,-3.361 -1.964,-2.907 -0.936,-2.307 -0.271,-1.124 0,0" />
      </g>
      <g
         transform="matrix(0.26264043,0,0,-0.26264043,189.09281,848.19997)"
         id="g32675">
        <path
           inkscape:connector-curvature="0"
           id="path32673"
           style="fill:#000000;fill-opacity:1;fill-rule:nonzero;stroke:none"
           d="m 0,0 c -8.093,-6.543 -20.376,-9.213 -28.49,-1.135 -0.408,0.406 -1.09,-0.178 -0.68,-0.587 8.473,-8.434 21.253,-5.834 29.757,1.043 C 1.037,-0.315 0.449,0.363 0,0" />
      </g>
      <g
         transform="matrix(0.26264043,0,0,-0.26264043,192.38968,845.41378)"
         id="g32679">
        <path
           inkscape:connector-curvature="0"
           id="path32677"
           style="fill:#ffdb00;fill-opacity:1;fill-rule:nonzero;stroke:none"
           d="m 0,0 c -1.488,-0.046 -2.663,-1.264 -3.226,-2.733 -0.503,-1.314 -0.518,-2.709 -0.783,-4.075 -0.221,-1.145 -0.565,-2.18 -1.493,-2.944 -0.629,-0.518 -1.436,-0.775 -2.038,-1.327 -2.03,-1.864 -1.1,-4.787 -1.511,-7.175 -0.416,-2.416 -2,-2.656 -4.107,-3.018 -1.204,-0.207 -2.038,-0.703 -2.933,-1.526 -1.52,-1.398 -2.596,-2.227 -4.786,-1.996 -1.26,0.132 -2.579,0.493 -3.837,0.145 -1.234,-0.341 -1.841,-1.296 -2.56,-2.264 -0.564,-0.756 -2.001,-1.375 -2.999,-0.908 -0.383,0.179 -0.976,1.071 -1.27,1.373 -0.464,0.474 -0.949,0.94 -1.491,1.326 -1.163,0.829 -2.593,1.365 -4.035,1.097 -1.707,-0.317 -2.686,-2.572 -4.518,-1.117 -1.556,1.236 -2.768,3.546 -3.733,5.266 -0.759,1.352 -1.26,3.094 -2.382,4.197 -0.242,0.239 -0.487,0.413 -0.733,0.542 l -0.26,-19.153 c 5.692,-0.784 10.654,-1.175 14.885,-1.175 11.699,0.052 20.357,2.467 25.971,7.247 5.613,4.779 8.422,11.842 8.422,21.192 0,2.46 -0.2,4.798 -0.583,7.026" />
      </g>
      <g
         transform="matrix(0.26264043,0,0,-0.26264043,180.45338,841.74629)"
         id="g32683">
        <path
           inkscape:connector-curvature="0"
           id="path32681"
           style="fill:#ffdb00;fill-opacity:1;fill-rule:nonzero;stroke:none"
           d="m 0,0 c 2.11,0.979 3.397,0.196 5.416,-0.333 1.882,-0.493 3.41,0.443 4.835,1.586 0.932,0.748 1.791,1.636 2.845,2.216 1.909,1.051 3.088,0.043 4.746,-0.881 2.501,-1.394 5.026,-0.474 7.587,0.244 1.806,0.506 3.522,0.801 5.364,0.282 1.512,-0.427 2.881,-1.256 4.236,-2.024 1.69,-0.958 3.38,-1.884 5.25,-2.207 -2.864,4.126 -6.573,7.349 -11.132,9.662 -0.118,0.06 -0.241,0.11 -0.359,0.168 -0.719,0.08 -1.441,0.129 -2.163,0.143 C 25.254,8.883 23.91,8.673 22.546,8.648 20.689,8.615 19.652,9.287 18.081,10.073 16.677,10.775 15.404,10.85 13.974,10.18 11.955,9.236 10.305,6.973 7.865,7.783 5.791,8.472 4.8,9.372 2.562,8.426 1.091,7.806 -0.729,6.202 -2.513,5.745 L -2.612,-1.594 C -1.771,-1.013 -0.927,-0.43 0,0" />
      </g>
      <g
         transform="matrix(0.26264043,0,0,-0.26264043,185.05676,844.89543)"
         id="g32687">
        <path
           inkscape:connector-curvature="0"
           id="path32685"
           style="fill:#ffffff;fill-opacity:1;fill-rule:nonzero;stroke:none"
           d="m 0,0 c 0,-0.271 -0.221,-0.492 -0.492,-0.492 -0.272,0 -0.491,0.221 -0.491,0.492 0,0.271 0.219,0.492 0.491,0.492 C -0.221,0.492 0,0.271 0,0" />
      </g>
      <g
         transform="matrix(0.26264043,0,0,-0.26264043,187.48723,842.53999)"
         id="g32691">
        <path
           inkscape:connector-curvature="0"
           id="path32689"
           style="fill:#000000;fill-opacity:1;fill-rule:nonzero;stroke:none"
           d="m 0,0 c -2.321,2.939 -5.996,4.271 -9.688,3.941 -3.469,-0.311 -7.751,-1.935 -9.765,-4.929 -0.283,-0.421 0.398,-0.815 0.68,-0.397 1.954,2.907 6.405,4.454 9.767,4.583 3.285,0.127 6.4,-1.159 8.45,-3.755 C -0.242,-0.954 0.312,-0.394 0,0" />
      </g>
    </g>
  </g>
</svg>
