<?xml version="1.0" encoding="UTF-8" standalone="no"?>
<!-- Created with Inkscape (http://www.inkscape.org/) -->

<svg
   xmlns:dc="http://purl.org/dc/elements/1.1/"
   xmlns:cc="http://creativecommons.org/ns#"
   xmlns:rdf="http://www.w3.org/1999/02/22-rdf-syntax-ns#"
   xmlns:svg="http://www.w3.org/2000/svg"
   xmlns="http://www.w3.org/2000/svg"
   xmlns:sodipodi="http://sodipodi.sourceforge.net/DTD/sodipodi-0.dtd"
   xmlns:inkscape="http://www.inkscape.org/namespaces/inkscape"
   width="500"
   height="500"
   viewBox="0 0 132.29166 132.29167"
   version="1.1"
   id="svg4979"
   inkscape:version="0.92.3 (2405546, 2018-03-11)"
   sodipodi:docname="keyboardF.svg">
  <defs
     id="defs4973" />
  <sodipodi:namedview
     id="base"
     pagecolor="#ffffff"
     bordercolor="#666666"
     borderopacity="1.0"
     inkscape:pageopacity="0.0"
     inkscape:pageshadow="2"
     inkscape:zoom="0.2138929"
     inkscape:cx="792.02843"
     inkscape:cy="-74.229848"
     inkscape:document-units="mm"
     inkscape:current-layer="layer1"
     showgrid="false"
     inkscape:window-width="1920"
     inkscape:window-height="1017"
     inkscape:window-x="-8"
     inkscape:window-y="-8"
     inkscape:window-maximized="1"
     units="px" />
  <metadata
     id="metadata4976">
    <rdf:RDF>
      <cc:Work
         rdf:about="">
        <dc:format>image/svg+xml</dc:format>
        <dc:type
           rdf:resource="http://purl.org/dc/dcmitype/StillImage" />
        <dc:title></dc:title>
      </cc:Work>
    </rdf:RDF>
  </metadata>
  <g
     inkscape:label="Layer 1"
     inkscape:groupmode="layer"
     id="layer1"
     transform="translate(0,-164.70832)">
    <g
       transform="matrix(6.4140409,0,0,6.4140409,-1338.6826,-5197.2138)"
       id="g32905">
      <g
         transform="matrix(0.26264043,0,0,-0.26264043,221.29909,844.75037)"
         id="g32767">
        <path
           inkscape:connector-curvature="0"
           id="path32765"
           style="fill:#ffdb00;fill-opacity:1;fill-rule:nonzero;stroke:none"
           d="m 0,0 c -0.628,-0.069 -1.095,-0.373 -1.386,-0.785 -0.43,0.598 -1.032,1.008 -1.896,0.931 -0.837,-0.074 -1.248,-0.581 -1.436,-1.222 -0.51,0.851 -1.268,1.485 -2.371,1.152 -0.592,-0.178 -0.909,-0.564 -1.062,-1.037 -0.453,0.633 -1.092,1.052 -1.992,0.861 -0.572,-0.121 -0.917,-0.438 -1.115,-0.846 -0.309,1.011 -0.8,1.86 -2.088,1.65 -2.029,-0.33 -1.99,-2.694 -1.758,-4.264 -0.164,-0.168 -0.2,-0.463 0.065,-0.608 2.919,-1.59 6.971,-0.779 10.157,-0.719 1.921,0.037 3.997,-0.147 5.899,0.119 0.751,0.105 1.25,0.357 1.549,1.116 C 3.231,-1.969 1.881,0.208 0,0" />
      </g>
      <g
         transform="matrix(0.26264043,0,0,-0.26264043,223.90574,843.30855)"
         id="g32771">
        <path
           inkscape:connector-curvature="0"
           id="path32769"
           style="fill:#ff9a00;fill-opacity:1;fill-rule:nonzero;stroke:none"
           d="m 0,0 -24.836,-0.705 0.157,-8.069 17.863,0.234 1.254,-16.295 -18.803,-0.235 0.39,-18.411 h -16.138 l 0.47,58.836 L 0,16.139 Z" />
      </g>
      <g
         transform="matrix(0.26264043,0,0,-0.26264043,217.62777,841.05867)"
         id="g32775">
        <path
           inkscape:connector-curvature="0"
           id="path32773"
           style="fill:#ffffff;fill-opacity:1;fill-rule:nonzero;stroke:none"
           d="M 0,0 C 4.048,-3.127 10.58,-0.91 11.611,4.182 12.007,6.135 11.057,9.388 8.732,11.099 6.742,12.564 4.077,12.61 1.882,11.633 -0.386,10.624 -2.277,8.489 -2.56,5.967 -2.812,3.719 -1.783,1.378 0,0" />
      </g>
      <g
         transform="matrix(0.26264043,0,0,-0.26264043,218.56831,840.27613)"
         id="g32779">
        <path
           inkscape:connector-curvature="0"
           id="path32777"
           style="fill:#000000;fill-opacity:1;fill-rule:nonzero;stroke:none"
           d="M 0,0 C 0.824,-0.779 2.155,-0.227 2.365,1.043 2.446,1.53 2.252,2.341 1.779,2.768 1.373,3.133 0.831,3.144 0.384,2.9 -0.078,2.649 -0.464,2.117 -0.521,1.488 -0.572,0.927 -0.363,0.344 0,0" />
      </g>
      <g
         transform="matrix(0.26264043,0,0,-0.26264043,220.68252,839.91309)"
         id="g32783">
        <path
           inkscape:connector-curvature="0"
           id="path32781"
           style="fill:#a1dc00;fill-opacity:1;fill-rule:nonzero;stroke:none"
           d="M 0,0 C 0.31,1.967 -0.641,5.075 -2.898,6.737 -4.889,8.203 -7.554,8.248 -9.749,7.271 -12.017,6.262 -13.908,4.127 -14.19,1.605 -14.251,1.07 -14.233,0.531 -14.155,0 Z" />
      </g>
      <g
         transform="matrix(0.26264043,0,0,-0.26264043,221.96827,841.05867)"
         id="g32787">
        <path
           inkscape:connector-curvature="0"
           id="path32785"
           style="fill:#ffffff;fill-opacity:1;fill-rule:nonzero;stroke:none"
           d="M 0,0 C 4.047,-3.127 10.58,-0.91 11.611,4.182 12.006,6.135 11.056,9.388 8.732,11.099 6.742,12.564 4.077,12.61 1.882,11.633 -0.387,10.624 -2.277,8.489 -2.56,5.967 -2.812,3.719 -1.784,1.378 0,0" />
      </g>
      <g
         transform="matrix(0.26264043,0,0,-0.26264043,222.90879,840.27613)"
         id="g32791">
        <path
           inkscape:connector-curvature="0"
           id="path32789"
           style="fill:#000000;fill-opacity:1;fill-rule:nonzero;stroke:none"
           d="M 0,0 C 0.824,-0.779 2.155,-0.227 2.365,1.043 2.445,1.53 2.252,2.341 1.778,2.768 1.373,3.133 0.83,3.144 0.383,2.9 -0.079,2.649 -0.464,2.117 -0.521,1.488 -0.573,0.927 -0.363,0.344 0,0" />
      </g>
      <g
         transform="matrix(0.26264043,0,0,-0.26264043,225.02299,839.91309)"
         id="g32795">
        <path
           inkscape:connector-curvature="0"
           id="path32793"
           style="fill:#a1dc00;fill-opacity:1;fill-rule:nonzero;stroke:none"
           d="M 0,0 C 0.309,1.967 -0.641,5.075 -2.898,6.737 -4.889,8.203 -7.554,8.248 -9.749,7.271 -12.018,6.262 -13.908,4.127 -14.19,1.605 -14.251,1.07 -14.233,0.531 -14.155,0 Z" />
      </g>
      <g
         transform="matrix(0.26264043,0,0,-0.26264043,214.15086,841.30477)"
         id="g32799">
        <path
           inkscape:connector-curvature="0"
           id="path32797"
           style="fill:#ff3871;fill-opacity:1;fill-rule:nonzero;stroke:none"
           d="m 0,0 c -0.621,-0.604 -1.241,-1.208 -1.861,-1.811 -0.365,-0.354 0.193,-0.91 0.556,-0.556 l 1.861,1.81 C 0.92,-0.203 0.363,0.354 0,0" />
      </g>
      <g
         transform="matrix(0.26264043,0,0,-0.26264043,215.0955,841.80092)"
         id="g32803">
        <path
           inkscape:connector-curvature="0"
           id="path32801"
           style="fill:#ff3871;fill-opacity:1;fill-rule:nonzero;stroke:none"
           d="m 0,0 c -0.353,-0.792 -0.865,-1.458 -1.538,-2.003 -0.395,-0.319 0.166,-0.873 0.556,-0.557 0.718,0.581 1.285,1.319 1.662,2.163 C 0.884,0.062 0.206,0.462 0,0" />
      </g>
      <g
         transform="matrix(0.26264043,0,0,-0.26264043,216.5631,843.15389)"
         id="g32807">
        <path
           inkscape:connector-curvature="0"
           id="path32805"
           style="fill:#ff3871;fill-opacity:1;fill-rule:nonzero;stroke:none"
           d="M 0,0 C -0.651,0.812 -1.154,1.718 -1.506,2.697 -1.675,3.17 -2.436,2.966 -2.265,2.488 -1.865,1.374 -1.297,0.366 -0.557,-0.557 -0.239,-0.951 0.314,-0.392 0,0" />
      </g>
      <g
         transform="matrix(0.26264043,0,0,-0.26264043,214.21037,844.12006)"
         id="g32811">
        <path
           inkscape:connector-curvature="0"
           id="path32809"
           style="fill:#ff3871;fill-opacity:1;fill-rule:nonzero;stroke:none"
           d="m 0,0 c -0.58,-0.63 -1.251,-1.132 -2.019,-1.512 -0.454,-0.225 -0.055,-0.904 0.398,-0.68 0.822,0.408 1.557,0.96 2.178,1.636 C 0.899,-0.184 0.344,0.374 0,0" />
      </g>
      <g
         transform="matrix(0.26264043,0,0,-0.26264043,215.39123,846.18541)"
         id="g32815">
        <path
           inkscape:connector-curvature="0"
           id="path32813"
           style="fill:#ff3871;fill-opacity:1;fill-rule:nonzero;stroke:none"
           d="M 0,0 C -0.733,0.622 -1.111,1.536 -0.946,2.496 -0.862,2.991 -1.62,3.204 -1.705,2.705 -1.915,1.479 -1.515,0.256 -0.557,-0.556 -0.173,-0.882 0.387,-0.328 0,0" />
      </g>
      <g
         transform="matrix(0.26264043,0,0,-0.26264043,217.33283,847.7247)"
         id="g32819">
        <path
           inkscape:connector-curvature="0"
           id="path32817"
           style="fill:#ff3871;fill-opacity:1;fill-rule:nonzero;stroke:none"
           d="m 0,0 c -0.212,0.459 -0.891,0.06 -0.68,-0.397 0.248,-0.538 0.256,-1.158 0.017,-1.7 -0.203,-0.459 0.475,-0.86 0.68,-0.398 C 0.381,-1.671 0.377,-0.819 0,0" />
      </g>
      <g
         transform="matrix(0.26264043,0,0,-0.26264043,213.93389,846.58528)"
         id="g32823">
        <path
           inkscape:connector-curvature="0"
           id="path32821"
           style="fill:#ff3871;fill-opacity:1;fill-rule:nonzero;stroke:none"
           d="m 0,0 c -0.393,-1.083 -1.459,-1.748 -2.597,-1.693 -0.506,0.025 -0.505,-0.763 0,-0.787 1.504,-0.072 2.847,0.867 3.356,2.271 C 0.932,0.268 0.171,0.473 0,0" />
      </g>
      <g
         transform="matrix(0.26264043,0,0,-0.26264043,214.93854,840.09993)"
         id="g32827">
        <path
           inkscape:connector-curvature="0"
           id="path32825"
           style="fill:#ff3871;fill-opacity:1;fill-rule:nonzero;stroke:none"
           d="m 0,0 c -0.117,-0.376 -0.389,-0.649 -0.766,-0.767 -0.481,-0.151 -0.275,-0.911 0.21,-0.759 0.644,0.202 1.114,0.672 1.315,1.317 C 0.91,0.275 0.15,0.483 0,0" />
      </g>
      <g
         transform="matrix(0.26264043,0,0,-0.26264043,221.54736,841.81003)"
         id="g32831">
        <path
           inkscape:connector-curvature="0"
           id="path32829"
           style="fill:#ff3871;fill-opacity:1;fill-rule:nonzero;stroke:none"
           d="M 0,0 C -0.862,0.228 -1.542,0.79 -1.941,1.585 -2.169,2.037 -2.849,1.639 -2.621,1.187 -2.134,0.22 -1.255,-0.482 -0.209,-0.759 0.281,-0.888 0.49,-0.129 0,0" />
      </g>
      <g
         transform="matrix(0.26264043,0,0,-0.26264043,219.33982,842.32699)"
         id="g32835">
        <path
           inkscape:connector-curvature="0"
           id="path32833"
           style="fill:#ff3871;fill-opacity:1;fill-rule:nonzero;stroke:none"
           d="m 0,0 -1.84,-1.306 c -0.41,-0.291 -0.016,-0.974 0.398,-0.68 0.613,0.436 1.226,0.871 1.839,1.306 C 0.807,-0.389 0.414,0.294 0,0" />
      </g>
      <g
         transform="matrix(0.26264043,0,0,-0.26264043,223.31021,843.29663)"
         id="g32839">
        <path
           inkscape:connector-curvature="0"
           id="path32837"
           style="fill:#ff3871;fill-opacity:1;fill-rule:nonzero;stroke:none"
           d="M 0,0 -2.101,1.834 C -2.48,2.167 -3.039,1.612 -2.657,1.278 l 2.1,-1.834 C -0.177,-0.888 0.382,-0.334 0,0" />
      </g>
      <g
         transform="matrix(0.26264043,0,0,-0.26264043,219.82405,847.59968)"
         id="g32843">
        <path
           inkscape:connector-curvature="0"
           id="path32841"
           style="fill:#ff3871;fill-opacity:1;fill-rule:nonzero;stroke:none"
           d="M 0,0 C -0.824,0.186 -1.535,0.729 -1.867,1.518 -2.062,1.978 -2.823,1.776 -2.626,1.309 -2.187,0.266 -1.324,-0.507 -0.209,-0.759 0.284,-0.87 0.495,-0.112 0,0" />
      </g>
      <g
         transform="matrix(0.26264043,0,0,-0.26264043,221.52173,848.04698)"
         id="g32847">
        <path
           inkscape:connector-curvature="0"
           id="path32845"
           style="fill:#ff3871;fill-opacity:1;fill-rule:nonzero;stroke:none"
           d="M 0,0 C -0.524,0.437 -1.05,0.874 -1.574,1.312 -1.961,1.633 -2.521,1.08 -2.131,0.755 -1.605,0.318 -1.081,-0.12 -0.557,-0.557 -0.17,-0.879 0.39,-0.325 0,0" />
      </g>
      <g
         transform="matrix(0.26264043,0,0,-0.26264043,218.95355,849.6972)"
         id="g32851">
        <path
           inkscape:connector-curvature="0"
           id="path32849"
           style="fill:#ff3871;fill-opacity:1;fill-rule:nonzero;stroke:none"
           d="M 0,0 C -0.281,0.418 -0.963,0.024 -0.679,-0.397 0.132,-1.6 0.349,-2.989 -0.071,-4.38 -0.218,-4.866 0.541,-5.073 0.687,-4.589 1.162,-3.015 0.92,-1.364 0,0" />
      </g>
      <g
         transform="matrix(0.26264043,0,0,-0.26264043,220.37192,849.35992)"
         id="g32855">
        <path
           inkscape:connector-curvature="0"
           id="path32853"
           style="fill:#ff3871;fill-opacity:1;fill-rule:nonzero;stroke:none"
           d="m 0,0 c -0.096,-1.883 -0.613,-3.638 -1.547,-5.275 -0.251,-0.441 0.429,-0.838 0.68,-0.398 1,1.755 1.552,3.656 1.654,5.673 C 0.813,0.506 0.026,0.505 0,0" />
      </g>
      <g
         transform="matrix(0.26264043,0,0,-0.26264043,221.34962,849.50138)"
         id="g32859">
        <path
           inkscape:connector-curvature="0"
           id="path32857"
           style="fill:#ff3871;fill-opacity:1;fill-rule:nonzero;stroke:none"
           d="M 0,0 C -0.278,0.42 -0.96,0.026 -0.68,-0.397 0.321,-1.906 0.043,-4.003 -1.42,-5.122 -1.816,-5.425 -1.425,-6.109 -1.022,-5.801 0.763,-4.436 1.26,-1.898 0,0" />
      </g>
      <g
         transform="matrix(0.26264043,0,0,-0.26264043,222.50382,847.68162)"
         id="g32863">
        <path
           inkscape:connector-curvature="0"
           id="path32861"
           style="fill:#ff3871;fill-opacity:1;fill-rule:nonzero;stroke:none"
           d="M 0,0 C -0.462,1.607 -1.744,2.848 -3.373,3.24 -3.865,3.358 -4.075,2.6 -3.582,2.481 -2.217,2.153 -1.147,1.143 -0.76,-0.209 -0.62,-0.695 0.14,-0.489 0,0" />
      </g>
      <g
         transform="matrix(0.26264043,0,0,-0.26264043,214.37528,849.44457)"
         id="g32867">
        <path
           inkscape:connector-curvature="0"
           id="path32865"
           style="fill:#ff3871;fill-opacity:1;fill-rule:nonzero;stroke:none"
           d="M 0,0 C -0.467,1.08 -0.541,2.233 -0.252,3.37 -0.126,3.861 -0.885,4.07 -1.011,3.579 -1.356,2.222 -1.233,0.885 -0.679,-0.397 -0.479,-0.861 0.199,-0.461 0,0" />
      </g>
      <g
         transform="matrix(0.26264043,0,0,-0.26264043,215.42251,849.19257)"
         id="g32871">
        <path
           inkscape:connector-curvature="0"
           id="path32869"
           style="fill:#ff3871;fill-opacity:1;fill-rule:nonzero;stroke:none"
           d="M 0,0 C -0.171,0.473 -0.932,0.269 -0.759,-0.209 -0.19,-1.786 -0.925,-3.51 -2.45,-4.202 -2.91,-4.411 -2.511,-5.089 -2.053,-4.881 -0.231,-4.055 0.678,-1.879 0,0" />
      </g>
      <g
         transform="matrix(0.26264043,0,0,-0.26264043,213.64585,850.61849)"
         id="g32875">
        <path
           inkscape:connector-curvature="0"
           id="path32873"
           style="fill:#ff3871;fill-opacity:1;fill-rule:nonzero;stroke:none"
           d="m 0,0 c -0.479,-0.986 -1.24,-1.742 -2.229,-2.216 -0.458,-0.219 -0.058,-0.897 0.397,-0.68 1.097,0.526 1.98,1.406 2.512,2.499 C 0.9,0.057 0.223,0.456 0,0" />
      </g>
      <g
         transform="matrix(0.26264043,0,0,-0.26264043,217.11326,851.62853)"
         id="g32879">
        <path
           inkscape:connector-curvature="0"
           id="path32877"
           style="fill:#ff3871;fill-opacity:1;fill-rule:nonzero;stroke:none"
           d="M 0,0 C -0.869,0.695 -1.553,1.54 -2.049,2.536 -2.274,2.989 -2.953,2.591 -2.729,2.138 -2.206,1.089 -1.472,0.175 -0.557,-0.557 -0.165,-0.87 0.396,-0.317 0,0" />
      </g>
      <g
         transform="matrix(0.26264043,0,0,-0.26264043,214.32785,852.09046)"
         id="g32883">
        <path
           inkscape:connector-curvature="0"
           id="path32881"
           style="fill:#ff3871;fill-opacity:1;fill-rule:nonzero;stroke:none"
           d="m 0,0 c -0.244,-0.743 -0.666,-1.382 -1.239,-1.912 -0.373,-0.344 0.184,-0.9 0.556,-0.556 0.672,0.621 1.156,1.39 1.442,2.259 C 0.917,0.273 0.157,0.479 0,0" />
      </g>
      <g
         transform="matrix(0.26264043,0,0,-0.26264043,216.12733,853.19744)"
         id="g32887">
        <path
           inkscape:connector-curvature="0"
           id="path32885"
           style="fill:#ff3871;fill-opacity:1;fill-rule:nonzero;stroke:none"
           d="M 0,0 C -1.005,0.575 -1.755,1.422 -2.225,2.478 -2.431,2.94 -3.108,2.54 -2.904,2.081 c 0.52,-1.17 1.396,-2.125 2.507,-2.76 C 0.043,-0.931 0.439,-0.251 0,0" />
      </g>
      <g
         transform="matrix(0.26264043,0,0,-0.26264043,214.25063,853.63179)"
         id="g32891">
        <path
           inkscape:connector-curvature="0"
           id="path32889"
           style="fill:#ff3871;fill-opacity:1;fill-rule:nonzero;stroke:none"
           d="M 0,0 C -0.011,-0.479 -0.218,-0.931 -0.604,-1.226 -1.002,-1.528 -0.61,-2.212 -0.207,-1.905 0.41,-1.435 0.769,-0.781 0.787,0 0.8,0.507 0.013,0.507 0,0" />
      </g>
      <g
         transform="matrix(0.26264043,0,0,-0.26264043,220.52758,842.81429)"
         id="g32895">
        <path
           inkscape:connector-curvature="0"
           id="path32893"
           style="fill:#ff3871;fill-opacity:1;fill-rule:nonzero;stroke:none"
           d="M 0,0 C -0.287,0.413 -0.97,0.02 -0.68,-0.397 0.109,-1.535 -0.21,-3.15 -1.413,-3.862 -1.849,-4.12 -1.453,-4.8 -1.016,-4.542 0.535,-3.625 1.034,-1.491 0,0" />
      </g>
      <g
         transform="matrix(0.26264043,0,0,-0.26264043,216.10887,841.0239)"
         id="g32899">
        <path
           inkscape:connector-curvature="0"
           id="path32897"
           style="fill:#ff3871;fill-opacity:1;fill-rule:nonzero;stroke:none"
           d="M 0,0 C -0.059,-0.74 -0.479,-1.385 -1.113,-1.762 -1.549,-2.021 -1.153,-2.701 -0.717,-2.441 0.169,-1.916 0.707,-1.022 0.787,0 0.827,0.505 0.04,0.502 0,0" />
      </g>
      <g
         transform="matrix(0.26264043,0,0,-0.26264043,216.61159,845.6164)"
         id="g32903">
        <path
           inkscape:connector-curvature="0"
           id="path32901"
           style="fill:#ff3871;fill-opacity:1;fill-rule:nonzero;stroke:none"
           d="m 0,0 c -0.639,0.48 -1.057,1.214 -1.147,2.007 -0.056,0.498 -0.844,0.503 -0.787,0 C -1.81,0.908 -1.281,-0.015 -0.397,-0.68 0.007,-0.984 0.399,-0.301 0,0" />
      </g>
    </g>
  </g>
</svg>
