<?xml version="1.0" encoding="UTF-8" standalone="no"?>
<!-- Created with Inkscape (http://www.inkscape.org/) -->

<svg
   xmlns:dc="http://purl.org/dc/elements/1.1/"
   xmlns:cc="http://creativecommons.org/ns#"
   xmlns:rdf="http://www.w3.org/1999/02/22-rdf-syntax-ns#"
   xmlns:svg="http://www.w3.org/2000/svg"
   xmlns="http://www.w3.org/2000/svg"
   xmlns:sodipodi="http://sodipodi.sourceforge.net/DTD/sodipodi-0.dtd"
   xmlns:inkscape="http://www.inkscape.org/namespaces/inkscape"
   width="500"
   height="500"
   viewBox="0 0 132.29166 132.29167"
   version="1.1"
   id="svg4979"
   inkscape:version="0.92.3 (2405546, 2018-03-11)"
   sodipodi:docname="keyboardG.svg">
  <defs
     id="defs4973" />
  <sodipodi:namedview
     id="base"
     pagecolor="#ffffff"
     bordercolor="#666666"
     borderopacity="1.0"
     inkscape:pageopacity="0.0"
     inkscape:pageshadow="2"
     inkscape:zoom="0.15124512"
     inkscape:cx="2822.3046"
     inkscape:cy="-177.46462"
     inkscape:document-units="mm"
     inkscape:current-layer="layer1"
     showgrid="false"
     inkscape:window-width="1920"
     inkscape:window-height="1017"
     inkscape:window-x="-8"
     inkscape:window-y="-8"
     inkscape:window-maximized="1"
     units="px" />
  <metadata
     id="metadata4976">
    <rdf:RDF>
      <cc:Work
         rdf:about="">
        <dc:format>image/svg+xml</dc:format>
        <dc:type
           rdf:resource="http://purl.org/dc/dcmitype/StillImage" />
        <dc:title></dc:title>
      </cc:Work>
    </rdf:RDF>
  </metadata>
  <g
     inkscape:label="Layer 1"
     inkscape:groupmode="layer"
     id="layer1"
     transform="translate(0,-164.70832)">
    <g
       transform="matrix(6.4140409,0,0,6.4140409,-1470.1512,-5199.1774)"
       id="g33043">
      <g
         transform="matrix(0.26264043,0,0,-0.26264043,243.08805,843.44747)"
         id="g32909">
        <path
           inkscape:connector-curvature="0"
           id="path32907"
           style="fill:#ffffff;fill-opacity:1;fill-rule:nonzero;stroke:none"
           d="m 0,0 c 0.163,1.512 -0.934,2.658 -2.379,3.188 -2.353,0.864 -5.546,1.204 -8.054,1.17 -4.004,-0.053 -8.774,-2.777 -7.649,-7.43 0.007,-0.053 0.025,-0.108 0.063,-0.164 0.832,-1.226 1.663,-2.451 2.494,-3.677 0.184,-0.271 0.626,-0.248 0.719,0.095 0.429,1.584 0.858,3.168 1.287,4.751 0.83,-1.12 1.708,-2.192 2.683,-3.2 0.161,-0.166 0.515,-0.154 0.618,0.08 l 2.193,4.98 c 0.562,-1.284 1.455,-3.329 2.669,-2.598 0.252,0.152 0.496,0.81 0.587,0.978 0.211,0.405 0.422,0.81 0.633,1.215 0.145,0.7 0.307,0.807 0.488,0.321 0.462,-0.387 0.352,-1.908 0.415,-2.469 0.108,-0.969 0.216,-1.94 0.324,-2.909 0.051,-0.448 0.606,-0.527 0.773,-0.105 0.723,1.819 1.446,3.639 2.168,5.458 C 0.083,-0.187 0.06,-0.081 0,0" />
      </g>
      <g
         transform="matrix(0.26264043,0,0,-0.26264043,242.92492,849.70031)"
         id="g32913">
        <path
           inkscape:connector-curvature="0"
           id="path32911"
           style="fill:#ffffff;fill-opacity:1;fill-rule:nonzero;stroke:none"
           d="m 0,0 c -0.124,0.385 -0.626,0.361 -0.759,0 -0.51,-1.383 -0.819,-2.765 -0.942,-4.195 -0.451,0.764 -0.981,1.467 -1.624,2.126 -0.214,0.218 -0.57,0.102 -0.657,-0.174 -0.325,-1.02 -0.648,-2.039 -0.973,-3.059 -0.693,1.38 -1.876,3.7 -3.032,3.392 -1.114,-0.297 -1.555,-2.322 -1.758,-3.875 -0.652,1.404 -1.344,2.787 -2.112,4.135 -0.141,0.247 -0.544,0.265 -0.68,0 -0.536,-1.046 -0.956,-2.108 -1.275,-3.218 -0.546,1.727 -0.962,3.479 -1.24,5.28 -0.056,0.359 -0.554,0.349 -0.719,0.093 -0.538,-0.829 -0.96,-1.678 -1.302,-2.573 -0.717,2.997 -1.369,6.008 -1.929,9.039 -0.072,0.392 -0.665,0.358 -0.759,0 -0.574,-2.19 -1.148,-4.38 -1.722,-6.57 -0.073,-0.277 0.139,-0.459 0.359,-0.481 -1.601,-6.225 4.437,-10.781 10.209,-10.89 3.662,-0.069 7.165,1.276 10.385,2.901 1.039,0.524 2.114,0.945 2.208,2.225 C 1.812,-4.04 0.543,-1.685 0,0" />
      </g>
      <g
         transform="matrix(0.26264043,0,0,-0.26264043,241.96093,840.16869)"
         id="g32917">
        <path
           inkscape:connector-curvature="0"
           id="path32915"
           style="fill:#ffdb00;fill-opacity:1;fill-rule:nonzero;stroke:none"
           d="M 0,0 C 0.048,0.216 0.017,0.45 -0.14,0.672 -2.102,3.464 -4.3,6.009 -6.654,8.479 -7.296,9.153 -8.31,8.902 -8.79,8.204 c -1.932,-2.809 -3.828,-5.642 -5.727,-8.474 -3.88,1.832 -7.887,3.145 -12.122,3.998 -0.891,0.179 -2.009,-0.415 -1.925,-1.468 l 0.692,-8.702 c -3.931,-0.023 -7.586,-0.898 -11.218,-2.6 -0.72,-0.337 -0.962,-1.438 -0.545,-2.08 1.652,-2.539 3.443,-4.936 5.403,-7.22 -2.487,-0.855 -4.974,-1.71 -7.461,-2.565 -1.25,-0.429 -1.522,-1.77 -0.727,-2.756 2.45,-3.039 5.147,-5.776 8.109,-8.285 -2.792,-2.472 -5.566,-4.965 -8.343,-7.455 -0.774,-0.693 -0.633,-2.246 0.348,-2.704 3.674,-1.713 7.34,-3.441 11.008,-5.166 -0.198,-2.86 -0.396,-5.72 -0.595,-8.58 -0.072,-1.042 1.168,-2.046 2.175,-1.657 3.68,1.421 7.184,3.114 10.56,5.159 1.092,0.661 1.143,2.327 0,2.976 -4.388,2.491 -5.232,10.723 -5.427,15.248 -0.23,5.306 0.675,10.698 2.921,15.532 3.881,8.351 11.403,14.483 20.365,16.525 C -0.185,-1.816 0.173,-0.871 0,0" />
      </g>
      <g
         transform="matrix(0.26264043,0,0,-0.26264043,248.41408,848.55551)"
         id="g32921">
        <path
           inkscape:connector-curvature="0"
           id="path32919"
           style="fill:#ff3871;fill-opacity:1;fill-rule:nonzero;stroke:none"
           d="m 0,0 c 0,-4.649 -1.228,-9.01 -3.682,-13.083 -2.456,-4.075 -5.825,-7.339 -10.107,-9.794 -4.283,-2.455 -9.009,-3.682 -14.18,-3.682 -5.484,0 -10.576,1.397 -15.277,4.192 -4.701,2.793 -8.449,6.58 -11.243,11.36 -2.794,4.778 -4.191,10.014 -4.191,15.708 0,5.588 1.358,10.733 4.074,15.433 2.715,4.7 6.45,8.422 11.203,11.164 4.752,2.743 10.028,4.113 15.826,4.113 3.551,0 6.959,-0.509 10.224,-1.527 3.263,-1.019 6.071,-2.378 8.422,-4.074 2.35,-1.698 3.995,-3.539 4.935,-5.524 l -11.046,-8.931 c -1.359,1.201 -3.03,2.167 -5.014,2.899 -1.986,0.731 -4.127,1.097 -6.424,1.097 -2.978,0 -5.654,-0.627 -8.031,-1.88 -2.377,-1.254 -4.244,-3.016 -5.601,-5.289 -1.359,-2.272 -2.037,-4.845 -2.037,-7.717 0,-2.612 0.587,-5.04 1.763,-7.285 1.175,-2.247 2.832,-4.049 4.974,-5.406 2.141,-1.359 4.57,-2.037 7.287,-2.037 3.498,0 6.306,0.678 8.421,2.037 2.116,1.357 3.487,3.133 4.113,5.327 l -15.042,1.802 2.664,12.848 26.48,-3.29 -0.078,-0.079 C -0.523,5.77 0,2.977 0,0" />
      </g>
      <g
         transform="matrix(0.26264043,0,0,-0.26264043,245.3954,838.14528)"
         id="g32925">
        <path
           inkscape:connector-curvature="0"
           id="path32923"
           style="fill:#000000;fill-opacity:1;fill-rule:nonzero;stroke:none"
           d="m 0,0 c -5.41,4.18 -14.144,1.216 -15.522,-5.591 -0.528,-2.61 0.742,-6.958 3.848,-9.246 2.66,-1.959 6.223,-2.02 9.159,-0.714 3.032,1.349 5.559,4.202 5.937,7.575 C 3.759,-4.971 2.384,-1.842 0,0" />
      </g>
      <g
         transform="matrix(0.26264043,0,0,-0.26264043,245.28971,838.27776)"
         id="g32929">
        <path
           inkscape:connector-curvature="0"
           id="path32927"
           style="fill:#ffffff;fill-opacity:1;fill-rule:nonzero;stroke:none"
           d="m 0,0 c -5.053,3.904 -13.208,1.136 -14.495,-5.221 -0.493,-2.437 0.693,-6.498 3.594,-8.634 2.484,-1.83 5.811,-1.887 8.552,-0.667 2.831,1.26 5.191,3.924 5.544,7.073 C 3.51,-4.642 2.227,-1.721 0,0" />
      </g>
      <g
         transform="matrix(0.26264043,0,0,-0.26264043,244.12322,839.48953)"
         id="g32933">
        <path
           inkscape:connector-curvature="0"
           id="path32931"
           style="fill:#000000;fill-opacity:1;fill-rule:nonzero;stroke:none"
           d="m 0,0 c -1.102,1.042 -2.881,0.303 -3.162,-1.394 -0.108,-0.65 0.151,-1.735 0.784,-2.305 0.542,-0.488 1.268,-0.504 1.866,-0.178 0.617,0.336 1.132,1.048 1.209,1.889 C 0.766,-1.239 0.486,-0.459 0,0" />
      </g>
      <g
         transform="matrix(0.26264043,0,0,-0.26264043,243.65924,839.50799)"
         id="g32937">
        <path
           inkscape:connector-curvature="0"
           id="path32935"
           style="fill:#ffffff;fill-opacity:1;fill-rule:nonzero;stroke:none"
           d="m 0,0 c 0,-0.271 -0.22,-0.492 -0.492,-0.492 -0.271,0 -0.491,0.221 -0.491,0.492 0,0.271 0.22,0.492 0.491,0.492 C -0.22,0.492 0,0.271 0,0" />
      </g>
      <g
         transform="matrix(0.26264043,0,0,-0.26264043,239.81429,842.24263)"
         id="g32941">
        <path
           inkscape:connector-curvature="0"
           id="path32939"
           style="fill:#ffdb00;fill-opacity:1;fill-rule:nonzero;stroke:none"
           d="m 0,0 c -0.479,-0.14 -0.865,0.039 -1.158,0.537 -1.007,0.413 -1.101,1.12 -0.283,2.12 0.287,0.335 -0.069,0.833 -0.477,0.618 l -1.631,0.328 c -0.507,0.747 -0.578,1.461 -0.214,2.141 0.229,0.642 0.601,1.107 1.05,1.631 C -2.385,7.757 -2.939,8.316 -3.27,7.931 -4.252,6.785 -5.305,5.163 -4.516,3.629 -4.095,2.814 -3.323,2.34 -2.504,2.349 -3.083,0.765 -1.97,-0.969 0,-0.787 0.5,-0.741 0.505,0.046 0,0" />
      </g>
      <g
         transform="matrix(0.26264043,0,0,-0.26264043,237.60774,842.63199)"
         id="g32945">
        <path
           inkscape:connector-curvature="0"
           id="path32943"
           style="fill:#ffdb00;fill-opacity:1;fill-rule:nonzero;stroke:none"
           d="m 0,0 c -0.906,-0.238 -1.242,0.038 -1.008,0.825 -0.147,0.508 -0.014,0.921 0.398,1.24 0.294,0.337 -0.071,0.824 -0.477,0.618 -0.942,0.022 -1.331,0.373 -1.169,1.054 -0.036,0.386 0.045,0.747 0.242,1.087 0.2,0.428 0.49,0.799 0.808,1.144 0.344,0.371 -0.212,0.929 -0.556,0.556 C -2.615,5.6 -3.454,4.182 -2.96,2.887 -2.732,2.29 -2.257,1.917 -1.714,1.831 -2.053,1.197 -2.192,0.472 -1.768,-0.185 -1.287,-0.928 -0.336,-1.161 0.397,-0.68 0.819,-0.402 0.425,0.279 0,0" />
      </g>
      <g
         transform="matrix(0.26264043,0,0,-0.26264043,237.33536,844.52547)"
         id="g32949">
        <path
           inkscape:connector-curvature="0"
           id="path32947"
           style="fill:#ffdb00;fill-opacity:1;fill-rule:nonzero;stroke:none"
           d="M 0,0 C -0.17,-0.192 -0.34,-0.383 -0.51,-0.575 -0.99,-0.654 -1.291,-0.5 -1.415,-0.111 -1.66,0.29 -1.65,0.682 -1.546,1.137 -1.452,1.556 -2.048,1.851 -2.266,1.44 -3.38,-0.659 -6.224,1.241 -4.821,3.103 -4.516,3.507 -5.199,3.9 -5.5,3.5 -6.299,2.439 -6.13,0.764 -4.954,0.027 -4.117,-0.497 -3.098,-0.35 -2.349,0.19 -2.243,-0.523 -1.87,-1.172 -1.088,-1.352 -0.155,-1.566 0.72,-0.939 0.787,0 0.823,0.505 0.036,0.503 0,0" />
      </g>
      <g
         transform="matrix(0.26264043,0,0,-0.26264043,235.27541,845.12028)"
         id="g32953">
        <path
           inkscape:connector-curvature="0"
           id="path32951"
           style="fill:#ffdb00;fill-opacity:1;fill-rule:nonzero;stroke:none"
           d="m 0,0 c -0.733,-0.981 -1.941,-0.034 -1.54,0.965 0.159,0.493 -0.574,0.668 -0.758,0.21 -0.207,-0.642 -0.968,-0.576 -1.333,-0.203 -0.226,0.23 -0.337,0.601 -0.365,0.912 -0.064,0.706 0.215,1.383 0.468,2.028 0.185,0.472 -0.576,0.676 -0.759,0.21 -0.482,-1.23 -0.94,-2.947 0.322,-3.902 0.485,-0.367 1.084,-0.398 1.578,-0.181 0.332,-1.226 2.108,-1.72 3.066,-0.436 C 0.983,0.009 0.3,0.401 0,0" />
      </g>
      <g
         transform="matrix(0.26264043,0,0,-0.26264043,236.50255,847.21651)"
         id="g32957">
        <path
           inkscape:connector-curvature="0"
           id="path32955"
           style="fill:#ffdb00;fill-opacity:1;fill-rule:nonzero;stroke:none"
           d="m 0,0 c -0.192,-1.842 -2.631,-1.294 -2.33,0.324 0.092,0.492 -0.646,0.708 -0.758,0.209 -0.214,-0.945 -1.371,-1.123 -2.033,-0.504 -0.599,0.56 -0.602,1.485 -0.46,2.214 0.096,0.494 -0.662,0.706 -0.759,0.209 -0.244,-1.252 -0.014,-2.906 1.345,-3.437 0.69,-0.269 1.461,-0.143 2.004,0.277 C -2.325,-2.4 0.536,-2.405 0.787,0 0.839,0.503 0.052,0.5 0,0" />
      </g>
      <g
         transform="matrix(0.26264043,0,0,-0.26264043,234.97314,848.68194)"
         id="g32961">
        <path
           inkscape:connector-curvature="0"
           id="path32959"
           style="fill:#ffdb00;fill-opacity:1;fill-rule:nonzero;stroke:none"
           d="m 0,0 c -0.542,-0.872 -1.555,-0.331 -1.448,0.566 0.055,0.466 -0.634,0.496 -0.773,0.105 -0.326,-0.92 -1.491,-0.157 -1.703,0.381 -0.243,0.618 -0.11,1.386 -0.012,2.019 0.077,0.496 -0.681,0.709 -0.758,0.209 -0.185,-1.185 -0.364,-2.861 0.888,-3.551 0.547,-0.3 1.197,-0.316 1.69,-0.045 0.468,-1.06 2.059,-1.267 2.796,-0.081 C 0.948,0.034 0.267,0.43 0,0" />
      </g>
      <g
         transform="matrix(0.26264043,0,0,-0.26264043,247.00906,847.07598)"
         id="g32965">
        <path
           inkscape:connector-curvature="0"
           id="path32963"
           style="fill:#ffdb00;fill-opacity:1;fill-rule:nonzero;stroke:none"
           d="m 0,0 c -0.019,0.505 -0.806,0.507 -0.787,0 0.023,-0.64 0.031,-3.216 -1.562,-2.312 -0.326,0.185 -0.624,-0.12 -0.577,-0.444 0.27,-1.908 -2.288,-1.673 -3.364,-1.497 -0.496,0.081 -0.709,-0.677 -0.209,-0.759 1.646,-0.269 4.156,-0.126 4.343,1.81 0.5,-0.084 0.999,0.067 1.421,0.447 C 0.036,-2.062 0.035,-0.957 0,0" />
      </g>
      <g
         transform="matrix(0.26264043,0,0,-0.26264043,244.7997,847.14702)"
         id="g32969">
        <path
           inkscape:connector-curvature="0"
           id="path32967"
           style="fill:#ffdb00;fill-opacity:1;fill-rule:nonzero;stroke:none"
           d="m 0,0 c -0.044,0.5 -0.832,0.505 -0.787,0 0.061,-0.692 -0.058,-3.743 -1.639,-2.488 -0.229,0.182 -0.565,0.133 -0.658,-0.174 -0.58,-1.92 -2.732,-2.445 -4.145,-1.034 -0.359,0.358 -0.916,-0.198 -0.557,-0.557 1.718,-1.715 4.341,-1.18 5.287,0.921 0.522,-0.216 1.083,-0.16 1.614,0.207 C 0.133,-2.421 0.097,-1.099 0,0" />
      </g>
      <g
         transform="matrix(0.26264043,0,0,-0.26264043,237.39653,850.51914)"
         id="g32973">
        <path
           inkscape:connector-curvature="0"
           id="path32971"
           style="fill:#ffdb00;fill-opacity:1;fill-rule:nonzero;stroke:none"
           d="M 0,0 C -0.798,-0.778 -2.13,-0.264 -2.312,0.789 -2.36,1.07 -2.789,1.181 -2.97,0.962 -3.575,0.232 -4.615,0.503 -5.118,1.211 c -0.453,0.638 -0.522,1.426 -0.55,2.186 -0.019,0.505 -0.806,0.507 -0.787,0 0.044,-1.209 0.255,-2.631 1.38,-3.326 0.688,-0.425 1.537,-0.462 2.193,-0.062 0.62,-1.221 2.401,-1.577 3.438,-0.566 C 0.919,-0.202 0.363,0.354 0,0" />
      </g>
      <g
         transform="matrix(0.26264043,0,0,-0.26264043,236.46268,851.56726)"
         id="g32977">
        <path
           inkscape:connector-curvature="0"
           id="path32975"
           style="fill:#ffdb00;fill-opacity:1;fill-rule:nonzero;stroke:none"
           d="m 0,0 c -0.706,-1.232 -2.01,-0.902 -2.782,0.008 -0.223,0.263 -0.392,0.609 -0.736,0.74 -0.518,0.197 -0.93,-0.142 -1.452,-0.162 -1.641,-0.064 -1.932,1.837 -2.07,3.088 -0.054,0.498 -0.842,0.504 -0.787,0 0.129,-1.172 0.279,-2.451 1.197,-3.293 0.336,-0.307 0.742,-0.533 1.192,-0.619 0.671,-0.128 1.36,0.315 1.977,-0.151 0.713,-0.54 0.873,-1.183 1.938,-1.231 0.938,-0.043 1.744,0.423 2.203,1.223 C 0.932,0.043 0.252,0.44 0,0" />
      </g>
      <g
         transform="matrix(0.26264043,0,0,-0.26264043,240.35777,852.17194)"
         id="g32981">
        <path
           inkscape:connector-curvature="0"
           id="path32979"
           style="fill:#ffdb00;fill-opacity:1;fill-rule:nonzero;stroke:none"
           d="m 0,0 c -1.111,-1.208 -3.103,-0.869 -3.796,0.583 -0.139,0.29 -0.524,0.217 -0.68,0 -1.379,-1.929 -4.051,-1.106 -4.42,1.094 -0.084,0.498 -0.843,0.286 -0.759,-0.21 0.477,-2.839 3.602,-3.627 5.454,-1.756 1.129,-1.679 3.307,-1.845 4.758,-0.267 C 0.899,-0.184 0.344,0.374 0,0" />
      </g>
      <g
         transform="matrix(0.26264043,0,0,-0.26264043,238.56367,853.50885)"
         id="g32985">
        <path
           inkscape:connector-curvature="0"
           id="path32983"
           style="fill:#ffdb00;fill-opacity:1;fill-rule:nonzero;stroke:none"
           d="m 0,0 c -0.82,-1.228 -1.648,-1.05 -2.486,0.532 -0.033,0.423 -0.656,0.558 -0.773,0.105 -0.334,-1.3 -1.792,-0.983 -2.445,-0.241 -0.497,0.566 -0.607,1.333 -0.657,2.056 -0.035,0.502 -0.822,0.506 -0.787,0 0.094,-1.354 0.556,-3.007 2.042,-3.421 0.784,-0.219 1.591,-0.003 2.112,0.531 0.738,-1.395 2.723,-1.6 3.673,0.041 C 0.934,0.042 0.254,0.438 0,0" />
      </g>
      <g
         transform="matrix(0.26264043,0,0,-0.26264043,245.33449,849.97553)"
         id="g32989">
        <path
           inkscape:connector-curvature="0"
           id="path32987"
           style="fill:#ffdb00;fill-opacity:1;fill-rule:nonzero;stroke:none"
           d="m 0,0 c -0.065,0.495 -0.853,0.501 -0.787,0 0.286,-2.165 -1.254,-3.905 -3.527,-3.548 -0.198,0.031 -0.439,-0.048 -0.484,-0.275 -0.375,-1.889 -2.365,-3.064 -4.188,-2.292 -0.462,0.196 -0.863,-0.482 -0.398,-0.679 2.149,-0.91 4.624,0.215 5.262,2.445 C -1.633,-4.52 0.344,-2.61 0,0" />
      </g>
      <g
         transform="matrix(0.26264043,0,0,-0.26264043,243.98638,852.63014)"
         id="g32993">
        <path
           inkscape:connector-curvature="0"
           id="path32991"
           style="fill:#ffdb00;fill-opacity:1;fill-rule:nonzero;stroke:none"
           d="m 0,0 c -0.511,-1.988 -2.538,-2.96 -4.416,-2.206 -0.192,0.077 -0.44,-0.085 -0.484,-0.274 -0.558,-2.423 -3.157,-1.411 -4.534,-0.817 -0.461,0.199 -0.861,-0.479 -0.398,-0.68 1.866,-0.804 4.728,-1.453 5.569,0.889 2.174,-0.647 4.448,0.644 5.022,2.879 C 0.885,0.282 0.126,0.491 0,0" />
      </g>
      <g
         transform="matrix(0.26264043,0,0,-0.26264043,240.04539,853.63198)"
         id="g32997">
        <path
           inkscape:connector-curvature="0"
           id="path32995"
           style="fill:#ffdb00;fill-opacity:1;fill-rule:nonzero;stroke:none"
           d="m 0,0 c -0.177,-0.386 -0.608,-0.663 -1.041,-0.511 -0.411,0.144 -0.623,0.685 -0.454,1.078 0.198,0.461 -0.48,0.862 -0.679,0.398 -0.339,-0.788 -0.084,-1.763 0.725,-2.155 0.779,-0.377 1.774,0.02 2.128,0.793 C 0.889,0.06 0.211,0.46 0,0" />
      </g>
      <g
         transform="matrix(0.26264043,0,0,-0.26264043,246.7953,850.35691)"
         id="g33001">
        <path
           inkscape:connector-curvature="0"
           id="path32999"
           style="fill:#ffdb00;fill-opacity:1;fill-rule:nonzero;stroke:none"
           d="m 0,0 c -0.269,-0.932 -0.964,-2.848 -2.306,-1.895 -0.192,0.137 -0.54,0.005 -0.578,-0.235 -0.185,-1.191 -1.571,-1.769 -2.543,-1.061 -0.41,0.298 -0.803,-0.385 -0.397,-0.68 1.225,-0.892 3.014,-0.286 3.555,1.057 1.554,-0.66 2.645,1.281 3.028,2.605 C 0.899,0.278 0.141,0.486 0,0" />
      </g>
      <g
         transform="matrix(0.26264043,0,0,-0.26264043,246.58101,849.28174)"
         id="g33005">
        <path
           inkscape:connector-curvature="0"
           id="path33003"
           style="fill:#ffdb00;fill-opacity:1;fill-rule:nonzero;stroke:none"
           d="M 0,0 C -0.096,-1.018 -1.338,-1.72 -2.261,-1.284 -2.716,-1.068 -3.116,-1.747 -2.658,-1.963 -1.17,-2.667 0.632,-1.636 0.787,0 0.834,0.504 0.047,0.5 0,0" />
      </g>
      <g
         transform="matrix(0.26264043,0,0,-0.26264043,241.91772,852.60282)"
         id="g33009">
        <path
           inkscape:connector-curvature="0"
           id="path33007"
           style="fill:#ffdb00;fill-opacity:1;fill-rule:nonzero;stroke:none"
           d="M 0,0 C -0.373,-0.719 -1.647,-0.648 -1.885,0.153 -2.029,0.637 -2.788,0.431 -2.644,-0.056 -2.221,-1.481 -0.016,-1.74 0.68,-0.397 0.912,0.052 0.233,0.45 0,0" />
      </g>
      <g
         transform="matrix(0.26264043,0,0,-0.26264043,245.46182,852.52332)"
         id="g33013">
        <path
           inkscape:connector-curvature="0"
           id="path33011"
           style="fill:#ffdb00;fill-opacity:1;fill-rule:nonzero;stroke:none"
           d="M 0,0 C 0.036,-1.305 -1.562,-2.009 -2.402,-0.915 -2.707,-0.519 -3.391,-0.91 -3.082,-1.312 -1.806,-2.975 0.847,-2.167 0.787,0 0.773,0.505 -0.014,0.508 0,0" />
      </g>
      <g
         transform="matrix(0.26264043,0,0,-0.26264043,236.67363,848.83572)"
         id="g33017">
        <path
           inkscape:connector-curvature="0"
           id="path33015"
           style="fill:#ffdb00;fill-opacity:1;fill-rule:nonzero;stroke:none"
           d="m 0,0 c -1,-0.972 -2.501,-0.157 -2.369,1.186 0.05,0.504 -0.738,0.501 -0.787,0 C -3.359,-0.878 -0.9,-1.972 0.557,-0.557 0.92,-0.203 0.364,0.353 0,0" />
      </g>
      <g
         transform="matrix(0.26264043,0,0,-0.26264043,236.61514,845.74904)"
         id="g33021">
        <path
           inkscape:connector-curvature="0"
           id="path33019"
           style="fill:#ffdb00;fill-opacity:1;fill-rule:nonzero;stroke:none"
           d="M 0,0 C -0.251,-0.309 -0.687,-0.477 -1.061,-0.271 -1.414,-0.075 -1.558,0.408 -1.392,0.771 -1.183,1.229 -1.861,1.629 -2.071,1.168 -2.398,0.455 -2.233,-0.447 -1.546,-0.895 -0.88,-1.329 0.058,-1.17 0.556,-0.557 0.873,-0.167 0.319,0.393 0,0" />
      </g>
      <g
         transform="matrix(0.26264043,0,0,-0.26264043,234.11418,846.44603)"
         id="g33025">
        <path
           inkscape:connector-curvature="0"
           id="path33023"
           style="fill:#ffdb00;fill-opacity:1;fill-rule:nonzero;stroke:none"
           d="M 0,0 C -0.578,-0.354 -1.181,0.25 -0.827,0.827 -0.561,1.26 -1.242,1.656 -1.506,1.224 -1.836,0.685 -1.792,-0.049 -1.334,-0.507 -0.876,-0.965 -0.142,-1.01 0.397,-0.68 0.829,-0.416 0.434,0.265 0,0" />
      </g>
      <g
         transform="matrix(0.26264043,0,0,-0.26264043,235.47778,842.83076)"
         id="g33029">
        <path
           inkscape:connector-curvature="0"
           id="path33027"
           style="fill:#ffdb00;fill-opacity:1;fill-rule:nonzero;stroke:none"
           d="m 0,0 c -0.081,-0.28 -0.573,-0.084 -0.682,0.08 -0.32,0.485 0.3,1.145 0.622,1.432 C 0.319,1.85 -0.239,2.405 -0.616,2.069 -1.309,1.452 -2.007,0.206 -1.142,-0.576 -0.563,-1.098 0.518,-1.044 0.759,-0.209 0.899,0.278 0.14,0.486 0,0" />
      </g>
      <g
         transform="matrix(0.26264043,0,0,-0.26264043,238.93389,843.34078)"
         id="g33033">
        <path
           inkscape:connector-curvature="0"
           id="path33031"
           style="fill:#ffdb00;fill-opacity:1;fill-rule:nonzero;stroke:none"
           d="M 0,0 C -0.361,-0.273 -0.945,-0.285 -1.221,0.129 -1.492,0.538 -1.266,1.087 -0.864,1.3 -0.416,1.537 -0.813,2.216 -1.261,1.979 -2.044,1.566 -2.374,0.5 -1.9,-0.268 -1.432,-1.027 -0.305,-1.211 0.397,-0.68 0.795,-0.377 0.404,0.306 0,0" />
      </g>
      <g
         transform="matrix(0.26264043,0,0,-0.26264043,241.09479,842.5776)"
         id="g33037">
        <path
           inkscape:connector-curvature="0"
           id="path33035"
           style="fill:#ffdb00;fill-opacity:1;fill-rule:nonzero;stroke:none"
           d="m 0,0 c -0.25,-0.248 -0.716,-0.286 -0.958,0.004 -0.235,0.283 -0.133,0.746 0.165,0.943 0.42,0.277 0.026,0.959 -0.398,0.679 -0.682,-0.45 -0.923,-1.438 -0.389,-2.103 0.529,-0.657 1.554,-0.658 2.137,-0.08 C 0.917,-0.2 0.36,0.357 0,0" />
      </g>
      <g
         transform="matrix(0.26264043,0,0,-0.26264043,240.31701,841.13245)"
         id="g33041">
        <path
           inkscape:connector-curvature="0"
           id="path33039"
           style="fill:#ffdb00;fill-opacity:1;fill-rule:nonzero;stroke:none"
           d="M 0,0 C -0.982,0.28 -1.249,1.831 -0.381,2.4 0.041,2.676 -0.353,3.358 -0.778,3.079 -2.208,2.142 -1.869,-0.286 -0.209,-0.759 0.279,-0.898 0.487,-0.139 0,0" />
      </g>
    </g>
  </g>
</svg>
